<svg width="80" height="98" fill="none" xmlns="http://www.w3.org/2000/svg"><path fill-rule="evenodd" clip-rule="evenodd" d="M4.267 55.135c-2.33 18.849 11.05 36.035 29.925 38.44C53.11 95.938 70.36 82.558 72.735 63.685c2-16.024-7.35-28.02-15.624-38.635l-.1-.127C51.534 17.894 46.316 11.2 45.386 4.274c-2.617 6.493-9.341 11.715-16.398 17.194l-.076.06-.102.079C18.235 29.84 6.261 39.163 4.267 55.135zm44.377-23.571c-1.9-2.438-3.912-5.048-5.666-7.62-1.914 1.691-3.892 3.223-5.882 4.764-.279.216-.558.432-.837.65a5.812 5.812 0 00-1.383 1.52 5.388 5.388 0 00-.8 3.07l-.04.326c.113.607.322 1.189.622 1.727.05.092.088.183.118.278 1.12 1.814 3.889 5.24 5.438 7.15l9.075 12.145 2.717 3.689a60.617 60.617 0 015.868 9.538c.194.458.547.82.998 1.029l.217.027c.517-.02.978-.33 1.202-.797a22.861 22.861 0 001.858-6.594 26.03 26.03 0 00-2.964-15.299A93.544 93.544 0 0048.674 31.72l-.03-.156zm-1.447 35.274c-2.193-3.47-4.329-6.663-7.737-11.336-1.86 1.657-3.627 3.113-5.286 4.48-1.727 1.423-3.336 2.749-4.81 4.105-5.036 4.241-5.673 11.751-1.422 16.78 4.252 5.028 11.776 5.668 16.811 1.427a11.895 11.895 0 002.874-14.632 5.69 5.69 0 00-.43-.824zm-13.275-18.42a.876.876 0 01-.143 1.15l-9.122 7.844-3.229 3.056a20.879 20.879 0 00-3.222 3.894.835.835 0 01-.648.426l-.283-.035c-.77-.164-1.482-1.707-1.482-1.707a9.78 9.78 0 01-.513-1.188l-.11-.344a20.403 20.403 0 011.11-11.002 28.483 28.483 0 015.177-8.27c1.356-1.541 2.799-2.999 4.317-4.374l1.458 1.765 6.69 8.786z" fill="#EC3F7A"/></svg>