<svg width="80" height="88" fill="none" xmlns="http://www.w3.org/2000/svg"><g clip-path="url(#clip0)"><path d="M28.15 17.09c4.273-1.645 8.05-1.889 12.107-3.576 2.522-1.084 6.311-4.094 9.499-6.697-.456 5.074.666 7.385 2.115 9.16 3.113 3.593 5.249 4.902 8.08 7.243 2.399 1.884 15.193 13.326 11.606 31.935-3.587 18.608-21.841 29.303-39.18 25.961C15.036 77.774 2.431 62.254 6.115 43.14 9.8 24.027 25.57 18.09 28.15 17.09z" fill="#fff"/><path d="M54.407 71.44c-5.454-1.126-6.281-2.258-10.685-5.351C19.93 49.384 17.166 37.78 16.703 35.148c-.463-2.633-1.065-6.863 1.222-10.986a40.25 40.25 0 001.027-1.959c4.21-3.213 8.053-4.667 9.217-5.118 4.2-1.659 8.05-1.89 12.106-3.576 2.509-1.013 6.312-4.095 9.5-6.697-.456 5.074.58 7.443 2.114 9.16 3.114 3.592 5.25 4.902 8.081 7.243 2.385 1.955 15.192 13.326 11.605 31.934-1.145 5.942-3.785 11.076-7.414 15.205l-.708-.163c-1.775 1.079-4.455 2.208-9.046 1.248z" fill="#2AAEFF"/><path d="M28.169 17.085c4.2-1.659 8.05-1.89 12.106-3.576 2.509-1.013 6.312-4.095 9.5-6.697-.456 5.074.58 7.443 2.114 9.16 3.114 3.592 5.25 4.902 8.081 7.243 2.385 1.955 15.192 13.326 11.605 31.934-1.145 5.942-3.785 11.076-7.414 15.205-7.736 8.802-19.963 13.032-31.766 10.757-17.34-3.342-29.945-18.863-26.26-37.976 2.022-10.497 7.69-17.019 12.817-20.932 4.21-3.213 8.054-4.667 9.217-5.118zm-10.373 6.758c-5.865 5.01-9.607 11.536-11.122 19.396-.88 4.56-.843 9.037.107 13.303a29.995 29.995 0 005.044 11.17C16.66 74.367 24.001 78.933 32.5 80.57c4.204.81 8.485.8 12.724-.03a33.464 33.464 0 0011.625-4.643c7.477-4.772 12.516-12.178 14.188-20.852 1.489-7.725.31-15.073-3.503-21.837-2.913-5.167-6.503-8.412-7.91-9.567a96.733 96.733 0 00-1.953-1.56c-1.956-1.536-3.803-2.986-6.196-5.747-1.283-1.436-2.535-3.56-2.33-8.3-2.922 2.376-6.294 5.03-8.664 5.986-2.109.877-4.195 1.375-6.212 1.856-1.908.455-3.882.925-5.898 1.722l-.076.029c-5.884 2.274-9.357 5.241-10.498 6.216z" fill="#2AAEFF"/><path d="M49.137 8.185c-1.578 2.763-1.726 4.305-1.85 4.955-.126.649-.1 2.45.885 3.537.434.457.522.773.508.846-.056.288-.745.38-.87 1.029-.153.793-.099 2.45 2.978 7.007 3.076 4.558 7.89 9.001 11.733 11.911 3.842 2.91 5.884 3.154 6.654 2.255.77-.898.41-3.287-1.682-6.757-2.092-3.47-9.69-9.348-9.69-9.348l-9.087-9.382-.033-2.924" fill="#2AAEFF"/><path d="M49.151 8.113c-.27 4.885.891 6.605 2.542 8.494 2.765 3.077 5.639 5.201 6.289 5.7 1.69 1.299 7.73 6.353 10.213 12.442.76 1.867-.445 2.308-.689 2.41-.243.104-2.745-.08-7.386-4.265-4.64-4.186-6.581-6.505-8.934-10.175-1.263-1.964-1.298-2.944-1.214-3.376.097-.505.498-.652 1.102-.686.301-.016.401-.147.083-.432-.318-.286-1.69-1.299-1.994-1.656-.304-.358-1.808-1.845-1.519-3.734.29-1.89.684-3.16 1.507-4.722z" fill="#fff"/><path d="M17.925 24.162c-2.287 4.123-1.684 8.353-1.222 10.986.463 2.632 3.226 14.236 27.02 30.94 4.403 3.094 5.23 4.225 10.684 5.352 4.59.96 7.27-.17 9.046-1.25l.708.164c-7.736 8.802-19.963 13.032-31.766 10.757-17.34-3.342-29.944-18.863-26.26-37.976 2.023-10.497 7.69-17.019 12.817-20.932a40.25 40.25 0 01-1.027 1.96z" fill="#2AAEFF"/><path d="M55.233 63.67c1.013-5.64-3.225-11.918-9.83-13.266-8.404-1.695-15.859 5.62-20.09 4.73-3.584-.765-9.128-9.165-12.51-9.816-3.597-.694-5.328 2.863-5.759 5.099-.43 2.236-.49 6.413.75 9.27 1.241 2.858 2.14 4.003 4.182 4.247 2.632.283 9.37-6.796 12.707-6.303 4.2.66 11.556 11.28 18.679 12.652 4.317.832 5.737.433 7.357-.228 2.45-1.098 3.974-3.199 4.514-6.386zM35.722 73.523c-1.66.877-4 1.399-8.605.511-4.605-.887-7.592-2.81-8.823-4.169-.55-.63-.921-.252-1.049.022-.127.275-.354.68.052 1.282.29.43 3.155 3.376 6.97 4.485 3.817 1.11 9.027 2.339 12.749.064.6-.408.596-1.157.292-1.515-.304-.358-.55-.63-.982-.713-.432-.083-.36-.07-.604.033z" fill="#fff"/><path d="M25.363 62.999c-1.15-.222-2.388-.386-3.362.025-.975.41-1.729 1.612-2.156 2.278-.426.665-.222 1.154.298 1.553.448.386.548.255 1.232-.585.684-.84 1.297-1.695 3.815-1.21 2.518.485 3.143 1.504 4.171 2.749 1.029 1.246 1.391 1.69 1.934 1.196.543-.494.51-1.099-.142-1.973-.653-.874-1.725-2.277-2.851-3.018-1.126-.74-1.787-.793-2.939-1.015z" fill="#fff"/></g><defs><clipPath id="clip0"><path fill="#fff" transform="scale(-1 1) rotate(-10.909 26.059 424.02)" d="M0 0h66.549v76.253H0z"/></clipPath></defs></svg>