<svg width="67" height="78" fill="none" xmlns="http://www.w3.org/2000/svg"><path fill-rule="evenodd" clip-rule="evenodd" d="M10.163 52.719c3.492 13.7 17.426 21.994 31.166 18.548 13.757-3.487 22.095-17.439 18.628-31.17-2.953-11.653-12.687-17.438-21.3-22.557l-.104-.061C32.85 14.088 27.42 10.86 24.897 6.31c-.055 5.21-3.303 10.653-6.712 16.365l-.037.062-.05.082C12.997 31.394 7.22 41.102 10.164 52.72zM34.55 24.35c-1.977-1.175-4.08-2.44-5.993-3.748-.869 1.69-1.825 3.289-2.788 4.896v.002l-.404.675c-.267.44-.452.925-.548 1.429a4.01 4.01 0 00.277 2.347l.06.236c.244.39.546.737.9 1.03.06.05.11.102.158.16 1.268.954 4.116 2.58 5.707 3.485l9.583 5.963 2.884 1.822a45.121 45.121 0 016.653 5.024c.258.265.601.42.97.443l.158-.04c.353-.154.59-.494.618-.878a17.02 17.02 0 00-.498-5.076 19.378 19.378 0 00-6.2-9.806 69.648 69.648 0 00-11.474-7.864l-.063-.1zm8.553 24.853c-2.46-1.812-4.807-3.448-8.436-5.765-.84 1.653-1.672 3.141-2.452 4.539-.812 1.454-1.568 2.81-2.223 4.149a8.852 8.852 0 003.56 12.02c4.31 2.336 9.701.741 12.044-3.564a8.856 8.856 0 00-1.971-10.925 4.224 4.224 0 00-.522-.454zm-14.195-9.177a.652.652 0 01.212.836l-4.2 7.91-1.411 2.994a15.546 15.546 0 00-1.18 3.573.622.622 0 01-.334.471l-.206.053c-.577.095-1.49-.782-1.49-.782a7.268 7.268 0 01-.678-.685l-.17-.209a15.19 15.19 0 01-2.21-7.93 21.204 21.204 0 011.35-7.137A40.217 40.217 0 0120.4 34.92l1.488.829 7.02 4.28z" fill="#DD332B"/></svg>