<svg width="1920" height="666" fill="none" xmlns="http://www.w3.org/2000/svg"><g opacity=".1" fill="#7267A4"><path d="M763.537 570.424a155.383 155.383 0 01-27.652-2.503c-27.57-5.006-54.412-17.483-82.145-38.123-51.782-38.507-98.543-99.58-148.097-164.234-68.016-88.798-138.34-180.562-231.376-228.888-105.871-55.028-224.17-42.166-361.74 39.239l-.527-.809C221.028-7.728 372.607 190.278 506.453 364.832c49.514 64.616 96.275 125.65 147.894 164.042 57.854 43.052 113.644 51.523 175.587 26.686 83.036-33.271 160.162-78.401 241.866-126.189 246.96-144.365 502.02-293.697 915.86-87.451l-.48.848c-413.28-205.977-668.26-56.799-914.98 87.45-81.578 47.942-158.865 93.073-241.861 126.382-21.059 8.846-43.782 13.549-66.802 13.824z"/><path d="M805.197 566.149c-113.603 0-197.854-96.769-286.477-198.544-70.972-81.29-143.846-165.351-236.964-206.246-105.465-46.209-221.861-28.804-355.829 53.602l-.648-.886c72.024-44.283 137.328-69.313 199.717-77.015 53.648-6.865 108.238 1.159 157.206 23.105 93.4 41.049 166.68 125.188 237.57 206.593 100.122 114.944 194.656 223.343 331.983 192.845 111.093-24.76 212.265-86.372 319.435-151.604 110.93-67.542 225.63-137.395 357.57-168.162 69.48-16.54 141.6-20.524 212.63-11.745 80.97 9.858 162.35 35.273 248.74 77.747l-.48.924c-359.84-176.75-592.67-34.965-817.81 102.122-107.25 65.462-208.506 127.074-319.842 151.758a212.324 212.324 0 01-46.801 5.506z"/><path d="M859.085 565.458c-57.166 0-112.672-18.522-169.191-56.414-54.655-36.659-105.667-87.989-154.979-137.587-74.089-74.55-150.688-151.604-244.372-185.567-105.263-38.238-220.405-15.943-351.66 68.158l-.688-1.001C231.92 64.899 386.413 220.315 535.806 370.648c102.591 103.201 199.433 200.663 337.57 193.27 130.244-7.009 246.964-84.717 370.324-166.738 102.75-68.389 208.99-139.089 330.16-173.284 62.87-18.277 128.87-24.751 194.33-19.061 73.57 6.393 146.93 27.726 224.33 65.155l-.56 1.078c-322.19-155.84-538.46-12.014-747.45 127.075-123.73 82.213-240.49 159.921-371.094 166.93-4.615.269-9.554.385-14.331.385z"/><path d="M926.574 571.002a302.967 302.967 0 01-31.62-1.695c-136.72-14.748-238.866-104.625-337.813-191.536-82.024-72.124-159.554-140.244-254.575-167.854-107.449-31.268-218.623-4.814-350.525 83.176l-.77-1.04c69.717-46.632 133.32-75.513 194.332-88.567 51.974-11.596 106.253-9.855 157.287 5.045 95.344 27.687 172.915 95.922 255.061 168.162 98.704 86.757 200.728 176.48 337.044 191.151 144.045 15.403 270.935-78.478 405.305-178.02 96.52-71.2 196.03-145.058 308.9-183.796 127.74-43.86 253.85-34.657 385.59 27.879l-.61 1.155c-293.76-139.705-496.68 10.59-692.91 155.917-124.78 92.38-243 179.984-374.696 180.023z"/><path d="M982.363 582.054a257.104 257.104 0 01-65.871-8.588c-129.837-34.002-229.594-110.863-326.112-185.22-88.786-68.428-172.632-133.044-270.526-155.263-109.555-24.876-222.227 6.624-354.615 99.157l-.85-1.117C97.1 238.22 210.178 206.644 320.178 231.636c98.218 22.295 182.186 87.026 271.254 155.531 96.356 74.243 196.032 151.027 325.546 184.836 154.732 40.549 288.822-70.546 430.772-188.186 91.09-75.475 185.3-153.568 290.93-197.12 119.75-49.366 237.04-45.747 358.58 11.013l-.65 1.271c-270.93-126.535-462.55 32.308-647.77 185.876-122.02 101.082-238.06 197.197-366.477 197.197z"/><path d="M1028.84 596.147c-31.299-.143-62.229-6.436-90.85-18.483-114.049-46.748-209.717-112.635-294.129-170.781-104.292-71.816-194.332-133.852-297.976-152.413-114.17-20.447-230.769 16.636-367.448 116.717l-.972-1.194c136.923-100.351 254.089-137.51 368.704-116.832C450.136 271.76 540.5 334.027 644.792 405.843c84.332 58.07 179.919 123.917 293.805 170.588 163.883 67.158 303.033-61.612 450.363-198.313 86.44-80.096 175.79-162.925 275.3-211.406 112.64-54.912 222.31-56.452 335.31-4.737l-.69 1.348c-251.58-115.176-433.2 53.102-608.79 215.873-119.87 110.902-234.33 216.951-361.25 216.951z"/><path d="M1069.73 612.09c-35.59 0-72.185-9.281-110.201-30.267-82.591-45.555-156.964-93.997-222.672-136.74-125.911-82.021-234.818-152.875-349.473-171.32-123.482-19.87-249.271 23.489-395.91 136.47l-1.053-1.232c77.57-59.571 147.854-99.349 215.06-121.183 61.984-20.255 121.458-25.338 182.186-15.403 115.182 18.522 224.048 89.453 350.121 171.589 65.587 42.705 139.919 91.148 222.672 136.663 172.23 95.037 315.02-52.639 466.15-208.98 82.07-85.178 166.89-173.014 260.77-226.347 106.16-60.418 209.03-66.81 314.54-19.562l-.73 1.464c-104.94-47.018-207.29-40.664-312.96 19.254-93.56 53.448-178.38 141.322-260.44 226.038-118.38 122.416-231.62 239.556-358.06 239.556z"/><path d="M1107.02 629.263c-40.49 0-82.11-13.092-125.993-43.282a7951.55 7951.55 0 01-62.632-43.244C738.841 418.396 596.979 320.241 458.963 292.053c-144.13-29.381-284.211 19.254-454.17 157.226L3.62 447.97c88.543-71.932 168.097-119.065 243.198-144.095 68.087-23.511 141.785-28.185 212.55-13.478 138.381 28.226 280.364 126.498 460.081 250.954a9217.698 9217.698 0 0062.712 43.244c180.28 124.032 325.59-43.244 479.43-220.34 78.06-89.877 158.79-182.834 247.29-240.98 100.08-65.77 196.72-76.745 295.55-33.54l-.73 1.54c-98.14-42.897-194.33-32-293.73 33.425-88.26 57.992-168.9 150.834-246.96 240.633-117.21 134.815-229.35 263.93-355.99 263.93z"/><path d="M1141.51 647.285c-46.52 0-92.14-18.792-138.95-57.145C585.561 248.694 374.185 181.961 17.99 488.326l-1.295-1.348c181.134-155.762 321.943-213.293 470.89-192.345 157.368 22.104 320.202 133.583 516.235 294.159 52.63 42.974 103.48 61.227 155.79 55.72 119.19-12.553 223.97-146.328 334.86-288.267 150.2-192.036 305.5-390.62 512.18-302.553l-.81 1.656c-205.22-87.45-360.08 110.516-509.84 301.976-111.17 142.131-216.19 276.368-336.03 288.806-6.12.713-12.29 1.099-18.46 1.155z"/><path d="M1174.51 666c-50.08 0-99.44-23.567-150.37-71.701-213.964-202.164-377.81-294.313-531.251-298.818-141.255-4.12-279.351 65.232-461.537 231.892l-1.417-1.386c182.833-167.084 321.335-236.59 463.157-232.431 153.846 4.505 318.299 96.846 532.628 299.395 55.59 52.525 109.31 75.591 163.93 70.431 121.21-11.553 225.71-159.383 336.36-316.031C1668.11 145.802 1815.28-62.6 2009 17.611l-.81 1.771c-192.02-79.518-338.82 128.153-480.69 329.008-110.89 157.072-215.62 305.249-337.81 316.801-5.05.539-10.11.809-15.18.809z"/></g></svg>