<svg width="62" height="76" fill="none" xmlns="http://www.w3.org/2000/svg"><path fill-rule="evenodd" clip-rule="evenodd" d="M4.235 41.78c-2.306 13.95 7.123 27.142 21.09 29.506 13.999 2.333 27.239-7.095 29.58-21.062 1.976-11.858-4.614-21.066-10.446-29.214l-.07-.097C40.53 15.518 36.85 10.38 36.37 5.2c-2.144 4.75-7.305 8.43-12.72 12.29l-.06.042-.077.056C15.395 23.39 6.205 29.96 4.235 41.781zm33.728-16.182c-1.339-1.87-2.757-3.873-3.983-5.84-1.475 1.2-2.993 2.28-4.52 3.365l-.002.001-.64.456c-.421.296-.785.666-1.076 1.089a4.012 4.012 0 00-.688 2.26l-.04.24c.066.456.204.895.41 1.305.035.07.06.138.08.21.778 1.383 2.733 4.016 3.827 5.484l6.38 9.31 1.91 2.827a45.13 45.13 0 014.074 7.273c.13.347.382.627.711.796l.16.027c.386 0 .738-.216.919-.556a17.018 17.018 0 001.582-4.849 19.379 19.379 0 00-1.738-11.47 69.643 69.643 0 00-7.349-11.81l-.017-.118zm-2.15 26.196c-1.526-2.648-3.018-5.089-5.41-8.668-1.434 1.176-2.793 2.205-4.069 3.171-1.328 1.006-2.565 1.943-3.703 2.907a8.852 8.852 0 00-1.568 12.438c3.01 3.87 8.586 4.575 12.461 1.573a8.856 8.856 0 002.583-10.796 4.24 4.24 0 00-.294-.625zm-9.314-14.106a.652.652 0 01-.142.85l-7.024 5.558-2.494 2.174c-.95.83-1.794 1.765-2.516 2.798a.622.622 0 01-.495.298l-.21-.035c-.567-.145-1.05-1.315-1.05-1.315a7.27 7.27 0 01-.346-.9l-.071-.258a15.188 15.188 0 011.16-8.15 21.202 21.202 0 014.104-5.994 40.232 40.232 0 013.344-3.122l1.03 1.357 4.71 6.739z" fill="#465892"/></svg>