<svg width="68" height="79" fill="none" xmlns="http://www.w3.org/2000/svg"><path fill-rule="evenodd" clip-rule="evenodd" d="M11.306 53.83c3.881 13.596 18.047 21.487 31.683 17.65 13.651-3.879 21.587-18.063 17.73-31.69-3.286-11.564-13.182-17.068-21.938-21.94l-.105-.057c-5.797-3.225-11.319-6.297-13.97-10.773.094 5.21-2.997 10.744-6.241 16.55l-.035.063-.047.084C13.528 32.433 8.03 42.303 11.306 53.83zm23.566-29.053c-2.01-1.119-4.149-2.323-6.099-3.576-.82 1.715-1.73 3.34-2.646 4.975l-.001.002-.384.686a4.326 4.326 0 00-.507 1.444 4.01 4.01 0 00.345 2.338l.066.234c.255.383.567.721.93 1.003.06.049.112.1.161.156 1.295.918 4.188 2.461 5.805 3.32l9.75 5.687 2.934 1.739a45.121 45.121 0 016.794 4.832c.266.258.613.403.983.415l.157-.044c.348-.165.574-.51.592-.896.04-1.71-.176-3.414-.643-5.06a19.378 19.378 0 00-6.477-9.624 69.651 69.651 0 00-11.694-7.533l-.066-.098zm9.26 24.598c-2.512-1.741-4.904-3.31-8.598-5.522-.793 1.677-1.581 3.189-2.32 4.608h-.001c-.77 1.477-1.487 2.853-2.104 4.21a8.852 8.852 0 003.902 11.915c4.376 2.21 9.719.463 11.937-3.908a8.856 8.856 0 00-2.282-10.864 4.24 4.24 0 00-.534-.44zM29.68 40.608c.276.18.376.531.235.83l-3.972 8.027-1.325 3.032a15.55 15.55 0 00-1.077 3.606.622.622 0 01-.32.48l-.204.058c-.575.112-1.512-.739-1.512-.739a7.274 7.274 0 01-.697-.665l-.176-.204a15.189 15.189 0 01-2.436-7.863 21.204 21.204 0 011.145-7.173 40.218 40.218 0 011.688-4.252l1.512.786 7.139 4.077z" fill="#02BAF5"/></svg>