<svg width="116" height="128" fill="none" xmlns="http://www.w3.org/2000/svg"><g clip-path="url(#clip0)"><path d="M74.933 25.564c-6.162-2.373-11.613-2.726-17.464-5.16-3.639-1.564-9.104-5.906-13.703-9.66.657 7.32-.96 10.653-3.05 13.214-4.492 5.182-7.573 7.07-11.658 10.448-3.46 2.717-21.915 19.224-16.74 46.068 5.173 26.844 31.506 42.272 56.52 37.45 25.013-4.821 43.196-27.21 37.882-54.782-5.315-27.573-28.064-36.137-31.787-37.578z" fill="#fff"/><path d="M37.057 103.966c7.869-1.625 9.061-3.257 15.413-7.72C86.794 72.15 90.78 55.41 91.447 51.614c.668-3.798 1.537-9.9-1.762-15.847a58.036 58.036 0 01-1.482-2.827c-6.072-4.634-11.618-6.733-13.296-7.382-6.059-2.394-11.613-2.726-17.464-5.16-3.619-1.46-9.104-5.906-13.703-9.66.657 7.319-.837 10.736-3.051 13.213-4.491 5.183-7.572 7.071-11.657 10.449-3.44 2.82-21.915 19.223-16.741 46.067 1.652 8.57 5.46 15.978 10.695 21.934l1.022-.236c2.56 1.557 6.427 3.186 13.05 1.802z" fill="#0073BA"/><path d="M74.907 25.557c-6.059-2.394-11.613-2.726-17.464-5.16-3.619-1.46-9.104-5.906-13.703-9.66.657 7.319-.837 10.736-3.051 13.213-4.491 5.183-7.572 7.071-11.657 10.449-3.44 2.82-21.915 19.223-16.741 46.067 1.652 8.57 5.46 15.978 10.695 21.934 11.16 12.697 28.798 18.799 45.825 15.517 25.014-4.821 43.196-27.21 37.882-54.782-2.918-15.142-11.094-24.55-18.49-30.196-6.072-4.634-11.618-6.733-13.296-7.382zm14.964 9.748c8.46 7.227 13.858 16.64 16.044 27.98 1.268 6.58 1.216 13.035-.155 19.19a43.287 43.287 0 01-7.276 16.114c-6.973 9.598-17.564 16.185-29.823 18.548a47.908 47.908 0 01-18.355-.043 48.278 48.278 0 01-16.77-6.698c-10.786-6.884-18.055-17.567-20.467-30.08-2.148-11.145-.448-21.743 5.053-31.5 4.202-7.455 9.38-12.136 11.412-13.802.985-.815 1.916-1.545 2.816-2.252 2.821-2.215 5.486-4.307 8.938-8.29 1.85-2.071 3.657-5.134 3.36-11.972 4.216 3.427 9.08 7.254 12.5 8.635 3.042 1.265 6.051 1.983 8.961 2.677 2.753.656 5.6 1.335 8.508 2.484l.109.042c8.488 3.28 13.498 7.56 15.145 8.967z" fill="#0073BA"/><path d="M44.66 12.718c2.275 3.985 2.489 6.21 2.669 7.147.18.936.143 3.534-1.277 5.102-.626.66-.754 1.117-.734 1.22.08.417 1.075.549 1.255 1.485.22 1.145.143 3.534-4.295 10.109-4.438 6.574-11.384 12.985-16.926 17.183-5.542 4.197-8.488 4.55-9.6 3.253-1.11-1.297-.59-4.743 2.428-9.749s13.978-13.485 13.978-13.485L45.266 21.45l.048-4.218" fill="#0073BA"/><path d="M44.64 12.613c.39 7.047-1.285 9.529-3.666 12.254-3.99 4.437-8.135 7.503-9.072 8.223-2.438 1.873-11.152 9.163-14.733 17.947-1.096 2.693.641 3.33.993 3.478.351.148 3.96-.116 10.655-6.154 6.694-6.039 9.494-9.384 12.887-14.678 1.822-2.834 1.873-4.246 1.752-4.87-.14-.729-.719-.941-1.59-.989-.435-.024-.578-.212-.12-.624.46-.412 2.438-1.873 2.877-2.39.439-.515 2.609-2.66 2.191-5.386-.417-2.725-.986-4.558-2.174-6.81z" fill="#fff"/><path d="M89.685 35.765c3.3 5.947 2.43 12.05 1.763 15.847-.668 3.798-4.654 20.537-38.977 44.635-6.353 4.461-7.545 6.094-15.413 7.718-6.623 1.385-10.489-.244-13.05-1.801l-1.022.235c11.16 12.698 28.798 18.8 45.825 15.518 25.014-4.821 43.197-27.21 37.882-54.783-2.918-15.142-11.094-24.55-18.49-30.195.363.75.845 1.678 1.482 2.826z" fill="#0073BA"/><path d="M35.866 92.757c-1.46-8.136 4.652-17.192 14.18-19.136 12.124-2.445 22.878 8.108 28.981 6.824 5.17-1.104 13.168-13.221 18.046-14.161 5.19-1 7.686 4.13 8.308 7.355.621 3.226.706 9.252-1.083 13.374s-3.085 5.774-6.031 6.126c-3.797.409-13.516-9.804-18.33-9.092-6.06.952-16.671 16.27-26.947 18.251-6.227 1.2-8.276.624-10.612-.329-3.535-1.585-5.734-4.614-6.512-9.212zM64.01 106.972c2.397 1.265 5.771 2.017 12.414.737 6.642-1.28 10.952-4.053 12.727-6.014.794-.908 1.33-.364 1.513.032.184.396.512.98-.074 1.849-.419.62-4.551 4.87-10.056 6.47-5.504 1.601-13.02 3.373-18.39.092-.867-.589-.86-1.669-.42-2.185.438-.517.793-.909 1.416-1.029.622-.12.519-.1.87.048z" fill="#fff"/><path d="M78.953 91.79c1.66-.32 3.445-.556 4.851.036 1.406.593 2.494 2.326 3.11 3.286.615.96.32 1.665-.43 2.24-.646.557-.79.369-1.777-.844-.988-1.212-1.871-2.445-5.504-1.745-3.632.7-4.533 2.17-6.017 3.966-1.484 1.797-2.006 2.437-2.79 1.725-.783-.713-.736-1.585.206-2.846.94-1.26 2.488-3.285 4.112-4.353 1.624-1.069 2.579-1.145 4.24-1.465z" fill="#fff"/></g><defs><clipPath id="clip0"><path fill="#fff" transform="rotate(-10.909 100.127 7.136)" d="M0 0h96v110H0z"/></clipPath></defs></svg>