<svg width="67" height="74" fill="none" xmlns="http://www.w3.org/2000/svg"><g clip-path="url(#clip0)"><path d="M23.519 14.28c3.57-1.375 6.726-1.58 10.115-2.989 2.107-.906 5.273-3.421 7.936-5.595-.38 4.24.557 6.17 1.767 7.653 2.602 3.001 4.386 4.095 6.752 6.051 2.004 1.574 12.693 11.134 9.696 26.682-2.997 15.547-18.248 24.483-32.735 21.69C12.562 64.98 2.03 52.012 5.11 36.043c3.077-15.969 16.253-20.93 18.409-21.764z" fill="#fff"/><path d="M45.456 59.688c-4.557-.941-5.247-1.887-8.927-4.47C16.65 41.26 14.341 31.564 13.955 29.365c-.387-2.2-.89-5.734 1.02-9.178.37-.665.649-1.202.86-1.637 3.516-2.684 6.727-3.9 7.7-4.276 3.509-1.386 6.726-1.579 10.115-2.988 2.095-.846 5.273-3.421 7.936-5.595-.38 4.239.485 6.218 1.767 7.653 2.601 3.001 4.386 4.095 6.752 6.05C52.097 21.03 62.797 30.53 59.8 46.078c-.957 4.964-3.163 9.254-6.195 12.704l-.592-.137c-1.483.902-3.722 1.845-7.558 1.044z" fill="#0073BA"/><path d="M23.535 14.275c3.509-1.386 6.726-1.579 10.115-2.988 2.095-.846 5.273-3.421 7.936-5.595-.38 4.239.485 6.218 1.767 7.653 2.601 3.001 4.386 4.095 6.752 6.05C52.097 21.03 62.797 30.53 59.8 46.078c-.957 4.964-3.163 9.254-6.195 12.704-6.463 7.354-16.679 10.888-26.54 8.987-14.488-2.792-25.02-15.76-21.941-31.729 1.69-8.77 6.426-14.219 10.71-17.488 3.516-2.684 6.728-3.9 7.7-4.276zm-8.667 5.646c-4.9 4.186-8.027 9.638-9.292 16.205-.735 3.81-.705 7.55.09 11.114a25.062 25.062 0 004.213 9.334c4.039 5.559 10.173 9.374 17.273 10.742 3.513.677 7.09.669 10.631-.025a27.96 27.96 0 009.713-3.88c6.247-3.986 10.457-10.173 11.854-17.42 1.244-6.456.26-12.594-2.927-18.245-2.433-4.318-5.433-7.029-6.61-7.994-.57-.471-1.109-.895-1.63-1.304-1.634-1.283-3.178-2.494-5.177-4.801-1.072-1.2-2.118-2.974-1.946-6.934-2.442 1.985-5.26 4.201-7.24 5-1.762.734-3.504 1.15-5.19 1.551-1.594.38-3.243.774-4.927 1.439l-.063.024c-4.916 1.9-7.818 4.38-8.772 5.194z" fill="#0073BA"/><path d="M41.053 6.839c-1.317 2.308-1.441 3.597-1.546 4.14-.104.542-.082 2.046.74 2.955.363.382.437.646.425.706-.046.242-.622.318-.727.86-.128.663-.083 2.047 2.488 5.855 2.57 3.808 6.593 7.52 9.803 9.952 3.21 2.43 4.916 2.635 5.56 1.884.643-.751.342-2.747-1.406-5.646-1.748-2.9-8.096-7.81-8.096-7.81l-7.592-7.839-.028-2.443" fill="#0073BA"/><path d="M41.065 6.778c-.225 4.082.745 5.519 2.124 7.097 2.31 2.57 4.711 4.346 5.254 4.763 1.412 1.085 6.459 5.307 8.533 10.395.635 1.56-.371 1.928-.575 2.014-.203.086-2.294-.067-6.17-3.565-3.878-3.497-5.5-5.434-7.465-8.5-1.055-1.642-1.085-2.46-1.015-2.821.081-.422.417-.545.92-.573.253-.014.336-.123.07-.361-.265-.24-1.411-1.085-1.666-1.384-.254-.3-1.51-1.541-1.269-3.12.242-1.578.572-2.64 1.26-3.945z" fill="#fff"/><path d="M14.976 20.188c-1.91 3.444-1.408 6.979-1.021 9.178.387 2.2 2.695 11.895 22.575 25.851 3.679 2.584 4.37 3.53 8.926 4.47 3.836.802 6.075-.141 7.558-1.043l.592.137c-6.463 7.354-16.679 10.888-26.54 8.987-14.488-2.792-25.019-15.76-21.941-31.729 1.69-8.77 6.426-14.219 10.71-17.488-.211.435-.49.972-.86 1.637z" fill="#0073BA"/><path d="M46.147 53.196c.846-4.712-2.695-9.957-8.214-11.083-7.021-1.416-13.25 4.696-16.785 3.952-2.994-.64-7.626-7.657-10.451-8.202-3.006-.58-4.452 2.392-4.812 4.26-.36 1.868-.41 5.359.627 7.746 1.036 2.387 1.787 3.345 3.493 3.548 2.2.237 7.828-5.678 10.617-5.266 3.51.552 9.655 9.424 15.606 10.57 3.607.696 4.794.362 6.147-.19 2.047-.918 3.32-2.672 3.772-5.335zM29.846 61.429c-1.388.732-3.342 1.168-7.19.426-3.847-.741-6.343-2.347-7.371-3.483-.46-.526-.77-.21-.876.019-.107.23-.297.568.043 1.07.242.36 2.636 2.821 5.824 3.748 3.188.927 7.541 1.954 10.65.053.503-.34.499-.967.245-1.266-.255-.298-.46-.526-.82-.595-.361-.07-.301-.058-.505.028z" fill="#fff"/><path d="M21.19 52.636c-.961-.186-1.995-.322-2.81.02-.813.344-1.443 1.347-1.8 1.904-.357.556-.186.964.249 1.298.374.322.457.213 1.03-.49.57-.702 1.083-1.416 3.186-1.01 2.104.405 2.626 1.256 3.486 2.297.859 1.04 1.162 1.411 1.615.998.454-.412.427-.917-.119-1.648-.545-.73-1.44-1.902-2.382-2.521-.94-.619-1.493-.663-2.455-.848z" fill="#fff"/></g><defs><clipPath id="clip0"><path fill="#fff" transform="scale(-1 1) rotate(-10.909 21.772 354.265)" d="M0 0h55.601v63.71H0z"/></clipPath></defs></svg>