<svg width="44" height="44" fill="none" xmlns="http://www.w3.org/2000/svg"><path d="M13.2 25.3h9.534v1.467H13.2V25.3zM13.2 21.633h8.067V23.1H13.2v-1.467z" fill="#2A1D69"/><path d="M41.8 5.5h-8.067V2.567A.733.733 0 0033 1.833H11a.733.733 0 00-.733.734V5.5H2.2A2.2 2.2 0 000 7.7v22a2.2 2.2 0 002.2 2.2h16.133v4.4h-6.6a.733.733 0 00-.733.733V40.7H9.533v1.467h24.934V40.7H33v-3.667a.733.733 0 00-.733-.733h-6.6v-4.4H41.8a2.2 2.2 0 002.2-2.2v-22a2.2 2.2 0 00-2.2-2.2zm0 1.467c.405 0 .733.328.733.733v18.333h-8.8V17.77l3.556-4.237a2.933 2.933 0 00-3.556-4.508V6.967H41.8zM28.152 22.139l-2.247-1.886 6.6-7.864 2.247 1.885-6.6 7.865zm-2.76-.401L26.78 22.9l-1.662.574.275-1.737zm10.773-9.149l-.472.561-2.246-1.885.471-.562a1.467 1.467 0 112.247 1.886zM11.733 3.3h20.534v7.09l-7.957 9.483a.733.733 0 00-.163.356l-.671 4.224a.733.733 0 00.963.806l4.042-1.393a.725.725 0 00.323-.22l3.463-4.13v8.717H11.733V3.3zM2.2 6.967h8.067v19.066h-8.8V7.7c0-.405.328-.733.733-.733zM31.533 40.7H12.467v-2.933h19.066V40.7zM24.2 36.3h-4.4v-4.4h4.4v4.4zm17.6-5.867H2.2a.733.733 0 01-.733-.733v-2.2h8.8v1.467c0 .405.328.733.733.733h22a.733.733 0 00.733-.733V27.5h8.8v2.2a.733.733 0 01-.733.733z" fill="#2A1D69"/><path d="M39.6 28.233h1.466V29.7H39.6v-1.467zM13.2 4.767h2.934v1.466H13.2V4.767zM17.6 4.767h12.466v1.466H17.6V4.767zM13.2 8.433h16.867V9.9H13.2V8.433zM13.2 12.1h1.467v1.467H13.2V12.1zM16.134 12.1H17.6v1.467h-1.466V12.1zM19.066 12.1h8.067v1.467h-8.067V12.1zM13.2 15.767h4.4v1.466h-4.4v-1.466zM19.066 15.767H24.2v1.466h-5.134v-1.466z" fill="#2A1D69"/></svg>