<svg width="44" height="44" fill="none" xmlns="http://www.w3.org/2000/svg"><g clip-path="url(#clip0)" fill="#2A1D69"><path d="M14.065 21.429a.858.858 0 101.212 1.215.858.858 0 00-1.212-1.215z"/><path d="M17.84 37.062l2.168-3.613 1.349 1.348c.059.06.125.108.195.146l.778 5.445a.86.86 0 001.458.486l7.292-7.292a.86.86 0 00.246-.513l.879-7.904 4.86-4.86c2.134-2.134 3.833-5.118 5.05-8.87C43.854 6.084 43.996 1.092 44 .882a.86.86 0 00-.88-.88c-.21.005-5.202.146-10.555 1.884-3.751 1.218-6.735 2.917-8.869 5.051l-4.86 4.86-7.905.878a.859.859 0 00-.512.247l-7.292 7.292a.858.858 0 00.486 1.458l5.445.778c.105.193.115.147 1.494 1.544L6.938 26.16a.86.86 0 00-.165 1.345l9.723 9.723a.86.86 0 001.345-.166zm5.948 1.381l-.608-4.254 7.08-7.078-.609 5.469-5.863 5.863zM40.889 9.546l-6.434-6.435c3.282-.911 6.305-1.23 7.774-1.339-.108 1.469-.428 4.492-1.34 7.774zM24.911 8.152c1.847-1.847 4.433-3.348 7.688-4.465l7.715 7.714c-1.118 3.256-2.618 5.841-4.465 7.688L24.396 30.543l-6.684-6.684a.86.86 0 00-1.216 1.215l6.684 6.684-1.215 1.216-10.938-10.937 8.811-8.812 5.073-5.073zm-13.49 6.197l5.47-.607-7.08 7.079-4.254-.608 5.864-5.864zm.384 10.896l6.95 6.95-1.822 3.039-8.166-8.166 3.038-1.823zM1.467 43.748l8.951-8.951a.859.859 0 10-1.215-1.215L.252 42.533a.86.86 0 101.215 1.215zM12.85 36.012a.86.86 0 00-1.215 0l-5.306 5.306a.86.86 0 001.215 1.215l5.306-5.306a.86.86 0 000-1.215zM6.772 31.15l-5.305 5.306a.86.86 0 001.215 1.216l5.306-5.306a.86.86 0 00-1.216-1.215z"/><path d="M31.596 19.697a5.163 5.163 0 000-7.292 5.163 5.163 0 00-7.293 0 5.153 5.153 0 000 7.292 5.153 5.153 0 007.293 0zm-6.077-6.077a3.442 3.442 0 014.861 0 3.442 3.442 0 010 4.862 3.434 3.434 0 01-4.861 0 3.435 3.435 0 010-4.862z"/></g><defs><clipPath id="clip0"><path fill="#fff" d="M0 0h44v44H0z"/></clipPath></defs></svg>