<svg width="44" height="44" fill="none" xmlns="http://www.w3.org/2000/svg"><path d="M42.708 13.768H35.82c-.736 0-1.378.555-1.378 1.291v1.464h-7.577c-.736 0-1.378.555-1.378 1.292v14.551H1.377c-.023 0-.085-.062-.085-.086v-2.755h22.817v-1.292H1.293V6.104c0-.024.062 0 .086 0h37.197c.024 0 0-.024 0 0v6.2h1.292v-6.2c0-.736-.556-1.292-1.292-1.292H1.378C.642 4.813 0 5.369 0 6.104V32.28c0 .736.642 1.378 1.378 1.378h14.465v4.219h-2.755v1.292h13.777v-1.292h-2.841v-4.219h1.463v1.378c0 .736.642 1.377 1.378 1.377h11.71c.736 0 1.292-.641 1.292-1.377v-4.822h2.841c.736 0 1.292-.642 1.292-1.378V15.06c0-.736-.556-1.291-1.292-1.291zM22.732 37.877h-5.597v-4.219h5.597v4.219zM35.82 15.059h6.888c.024 0 0-.024 0 0v1.464h-6.974v-1.464c0-.024.062 0 .086 0zm-.086 2.756h6.974v8.352h-6.974v-8.352zm2.841 17.307h-11.71c-.024 0-.086-.063-.086-.086v-1.378h11.796v1.378c0 .023.024.086 0 .086zm0-2.756H26.78V17.815c0-.024.062 0 .086 0h7.577v11.021c0 .736.642 1.378 1.378 1.378h2.755v2.152zm4.133-3.444H35.82c-.024 0-.086-.062-.086-.086v-1.378h6.974v1.378c0 .024.024.086 0 .086z" fill="#2A1D69"/><path d="M16.532 25.478h1.378v1.291h-1.378v-1.291zM19.287 25.478h1.378v1.291h-1.378v-1.291zM22.043 25.478h1.378v1.291h-1.378v-1.291zM4.048 10.926V8.86H6.2V7.568H2.756v3.358h1.292zM27.554 21.259h1.292V19.88h1.463V18.59h-2.755v2.67zM36.509 18.59v2.669H37.8V19.88h1.464V18.59H36.51z" fill="#2A1D69"/></svg>