<svg width="44" height="44" fill="none" xmlns="http://www.w3.org/2000/svg"><g clip-path="url(#clip0)"><path d="M43.72 7.553a.583.583 0 00-.562-.025l-4.423 2.177-1.703-3.457 4.888-2.406a.583.583 0 00.19-.895 8.175 8.175 0 00-14.414 6.095l-5.388 5.389L10.374 2.513a.583.583 0 00-.314-.162L1.579.906a.583.583 0 00-.673.673l1.445 8.48c.02.12.077.23.162.315l11.919 11.934L9.039 27.7A8.167 8.167 0 00.002 35.96a.583.583 0 00.84.513l4.424-2.177 1.702 3.457-4.887 2.405a.583.583 0 00-.191.896 8.175 8.175 0 0014.414-6.095l5.384-5.384 9.803 9.822a5.552 5.552 0 003.95 1.645h.001a5.555 5.555 0 003.95-1.643 5.588 5.588 0 00-.002-7.907l-9.816-9.803 5.388-5.388A8.167 8.167 0 0044 8.04a.584.584 0 00-.28-.488zM5.054 8.657l27.12 27.172-1.297 1.297L3.75 9.962l1.305-1.305zM33 35.004L5.878 7.834l1.956-1.956L35.005 33 33 35.004zm2.83-2.829L8.657 5.054l1.304-1.305 27.165 27.129-1.298 1.297zM2.193 2.194L8.752 3.31 3.311 8.75 2.194 2.195zM13.132 40.78a7.017 7.017 0 01-9.835.077l4.709-2.318a.583.583 0 00.265-.78l-2.217-4.503a.583.583 0 00-.78-.266l-4.06 1.998a6.938 6.938 0 012.005-4.12 7.01 7.01 0 119.913 9.912zm2.904-7.205a8.169 8.169 0 00-5.616-5.609l4.835-4.835 5.609 5.616-4.828 4.828zm23.826 1.864a4.39 4.39 0 01-1.294 3.127c-.002 0-.003.01-.004.01a4.397 4.397 0 01-3.122 1.298h-.001c-1.174 0-2.3-.469-3.126-1.303l-.613-.617 6.25-6.252.614.612a4.388 4.388 0 011.296 3.125zM28.749 20.863l-5.616-5.608 4.831-4.831a8.17 8.17 0 005.616 5.608l-4.831 4.831zm12.033-7.732a7.006 7.006 0 11-.079-9.99L35.995 5.46a.583.583 0 00-.266.78l2.218 4.504a.583.583 0 00.78.265l4.059-1.998a6.939 6.939 0 01-2.004 4.121z" fill="#2A1D69"/></g><defs><clipPath id="clip0"><path fill="#fff" d="M0 0h44v44H0z"/></clipPath></defs></svg>