<svg width="44" height="44" fill="none" xmlns="http://www.w3.org/2000/svg"><path d="M2.75 14.437H1.375v-2.75A3.441 3.441 0 014.813 8.25h23.375V6.875h-1.375a.688.688 0 01-.487-1.174l4.125-4.125a.687.687 0 01.973 0l4.125 4.125a.687.687 0 01-.486 1.174h-1.376V8.25h2.75a3.442 3.442 0 013.438 3.437v13.75H38.5v-13.75a2.065 2.065 0 00-2.063-2.062h-2.75V22h-1.374V6.187A.687.687 0 0133 5.5h.403l-2.465-2.465L28.471 5.5h.403a.687.687 0 01.688.687v16.5h-1.375V9.625H4.813a2.065 2.065 0 00-2.063 2.062v2.75zM4.813 35.75h11.45l-1.65 5.5h-1.55v1.375h15.124V41.25h-1.55l-.885-2.948-1.317.396.766 2.552h-9.152l1.65-5.5h4.988v-1.375H4.813a2.065 2.065 0 01-2.062-2.063v-.687H22V30.25H2.75V15.812H1.375v16.5a3.442 3.442 0 003.438 3.438zm20.625-11.688v-11h-2.75v15.813H4.813V27.5h2.75V22a.687.687 0 01.687-.688h4.125a.687.687 0 01.688.688v5.5h1.374V17.187a.687.687 0 01.688-.687h4.125a.687.687 0 01.688.687V27.5h1.375V12.375a.687.687 0 01.687-.688h4.125a.687.687 0 01.688.688v11.687h-1.375zm-13.75-1.375h-2.75V27.5h2.75v-4.813zm6.874-4.812h-2.75V27.5h2.75v-9.625zM4.813 11v1.375h1.375V11H4.813zm4.125 0H7.563v1.375h1.375V11zm1.376 0v1.375h1.374V11h-1.374zM42.02 39.104a2.061 2.061 0 01-1.458 3.52 2.106 2.106 0 01-1.459-.603l-3.29-3.291a8.257 8.257 0 112.916-2.916l3.29 3.29zm-3.521-7.48a6.875 6.875 0 10-6.875 6.876 6.883 6.883 0 006.875-6.875zm2.548 8.453l-3.127-3.127c-.296.35-.621.675-.971.971l3.127 3.127a.687.687 0 10.97-.971h.001zm-3.923-8.452a5.5 5.5 0 11-5.5-5.5 5.506 5.506 0 015.5 5.5zm-1.375 0a4.125 4.125 0 10-8.25 0 4.125 4.125 0 008.25 0zm-6.875 0h1.375a1.376 1.376 0 011.375-1.375v-1.375a2.753 2.753 0 00-2.75 2.75zM37.813 5.5h1.374a4.13 4.13 0 00-4.124-4.125V2.75a2.753 2.753 0 012.75 2.75z" fill="#2A1D69"/></svg>