<svg width="44" height="44" fill="none" xmlns="http://www.w3.org/2000/svg"><path d="M43.55 20.868l-10.175-10.78a1.65 1.65 0 10-2.4 2.265L40.083 22l-9.106 9.648a1.65 1.65 0 002.4 2.266l10.174-10.78c.6-.637.6-1.63 0-2.266zM13.025 31.648L3.92 22l9.106-9.648a1.65 1.65 0 10-2.4-2.264L.45 20.867c-.6.635-.6 1.63 0 2.265l10.176 10.78a1.644 1.644 0 002.332.067 1.65 1.65 0 00.067-2.332zM24.67 4.529a1.652 1.652 0 00-1.881 1.382l-4.84 31.68a1.65 1.65 0 003.262.498l4.84-31.68a1.65 1.65 0 00-1.382-1.88z" fill="#2A1D69"/></svg>