<svg width="119" height="131" fill="none" xmlns="http://www.w3.org/2000/svg"><g clip-path="url(#clip0)"><path d="M76.864 25.445c-6.36-2.45-11.985-2.813-18.024-5.325-3.756-1.614-9.397-6.096-14.143-9.97.679 7.554-.991 10.994-3.148 13.637-4.635 5.349-7.815 7.298-12.031 10.783C25.948 37.374 6.9 54.41 12.24 82.115c5.34 27.704 32.517 43.627 58.332 38.651 25.816-4.976 44.581-28.083 39.097-56.539-5.485-28.456-28.963-37.295-32.805-38.782z" fill="#fff"/><path d="M37.772 106.359c8.12-1.676 9.35-3.361 15.907-7.966 35.423-24.87 39.537-42.146 40.226-46.065.689-3.92 1.586-10.218-1.82-16.355a59.902 59.902 0 01-1.529-2.917c-6.266-4.783-11.99-6.949-13.721-7.62-6.254-2.47-11.986-2.813-18.025-5.324-3.734-1.507-9.396-6.096-14.142-9.97.678 7.554-.864 11.08-3.148 13.637-4.636 5.348-7.815 7.297-12.032 10.783-3.549 2.912-22.617 19.84-17.277 47.544 1.705 8.846 5.636 16.49 11.038 22.637l1.055-.243c2.643 1.607 6.633 3.288 13.468 1.859z" fill="#2AAEFF"/><path d="M76.835 25.437c-6.254-2.47-11.986-2.814-18.025-5.325-3.734-1.507-9.396-6.096-14.142-9.97.678 7.554-.864 11.08-3.148 13.637-4.636 5.348-7.815 7.297-12.032 10.783-3.549 2.912-22.617 19.84-17.277 47.544 1.705 8.846 5.636 16.49 11.038 22.637 11.517 13.105 29.721 19.402 47.294 16.015 25.815-4.976 44.581-28.083 39.096-56.539-3.011-15.627-11.45-25.337-19.083-31.163-6.266-4.783-11.99-6.949-13.721-7.62zm15.443 10.06c8.731 7.46 14.303 17.175 16.558 28.877 1.309 6.79 1.255 13.454-.16 19.805a44.644 44.644 0 01-7.509 16.631c-7.196 9.906-18.127 16.704-30.78 19.142a49.421 49.421 0 01-18.942-.044 49.809 49.809 0 01-17.307-6.913c-11.133-7.105-18.635-18.13-21.124-31.044-2.216-11.502-.462-22.44 5.215-32.51 4.337-7.694 9.681-12.524 11.778-14.244 1.017-.84 1.977-1.595 2.906-2.324 2.912-2.286 5.662-4.445 9.225-8.556 1.91-2.137 3.774-5.299 3.468-12.355 4.351 3.537 9.37 7.486 12.9 8.91 3.14 1.307 6.245 2.047 9.248 2.764 2.841.677 5.78 1.378 8.781 2.564l.113.043c8.76 3.386 13.93 7.803 15.63 9.255z" fill="#2AAEFF"/><path d="M45.617 12.186c2.349 4.114 2.57 6.41 2.755 7.376.187.967.148 3.647-1.318 5.266-.646.682-.778 1.152-.757 1.26.083.43 1.11.566 1.295 1.532.228 1.181.148 3.647-4.433 10.432-4.58 6.786-11.748 13.402-17.468 17.734-5.72 4.332-8.76 4.696-9.907 3.357-1.147-1.338-.61-4.894 2.505-10.06 3.115-5.167 14.426-13.918 14.426-13.918l13.528-13.967.05-4.353" fill="#2AAEFF"/><path d="M45.596 12.079c.402 7.273-1.326 9.833-3.784 12.646-4.116 4.58-8.395 7.743-9.362 8.486-2.517 1.933-11.51 9.458-15.206 18.523-1.13 2.78.662 3.436 1.025 3.59.363.152 4.088-.12 10.997-6.352s9.798-9.685 13.3-15.149c1.88-2.924 1.933-4.382 1.809-5.026-.145-.752-.743-.97-1.641-1.02-.45-.025-.598-.22-.124-.645.473-.425 2.516-1.932 2.968-2.465.453-.533 2.693-2.746 2.262-5.559-.431-2.813-1.018-4.704-2.244-7.03z" fill="#fff"/><path d="M92.086 35.973c3.405 6.137 2.508 12.436 1.819 16.355-.689 3.92-4.803 21.195-40.227 46.065-6.555 4.605-7.786 6.29-15.906 7.966-6.835 1.429-10.825-.252-13.468-1.859l-1.055.243c11.517 13.105 29.721 19.402 47.294 16.015 25.815-4.976 44.581-28.083 39.096-56.539-3.012-15.627-11.45-25.337-19.083-31.163.375.775.872 1.732 1.53 2.917z" fill="#2AAEFF"/><path d="M36.542 94.79c-1.508-8.396 4.801-17.742 14.635-19.749 12.512-2.522 23.61 8.369 29.91 7.043 5.335-1.14 13.59-13.645 18.624-14.615 5.356-1.032 7.932 4.263 8.574 7.591.641 3.33.729 9.549-1.117 13.803-1.847 4.254-3.184 5.96-6.225 6.323-3.918.42-13.949-10.12-18.918-9.385-6.254.983-17.205 16.793-27.81 18.836-6.427 1.239-8.541.644-10.953-.339-3.648-1.635-5.917-4.762-6.72-9.507zM65.589 109.462c2.473 1.305 5.956 2.081 12.811.76 6.856-1.321 11.304-4.183 13.136-6.207.819-.937 1.371-.376 1.561.033.19.409.529 1.012-.076 1.908-.432.64-4.698 5.026-10.378 6.678-5.681 1.652-13.439 3.481-18.98.094-.894-.607-.887-1.722-.434-2.255.452-.532.819-.937 1.461-1.061.643-.124.536-.103.899.05z" fill="#fff"/><path d="M81.01 93.793c1.715-.33 3.556-.574 5.007.037 1.451.612 2.574 2.4 3.21 3.391.635.992.33 1.718-.444 2.313-.667.574-.815.38-1.834-.872-1.02-1.25-1.93-2.523-5.68-1.8-3.75.722-4.68 2.238-6.21 4.092-1.532 1.855-2.07 2.515-2.88 1.78-.807-.735-.759-1.635.213-2.936.97-1.301 2.568-3.39 4.244-4.494 1.676-1.102 2.66-1.18 4.375-1.511z" fill="#fff"/></g><defs><clipPath id="clip0"><path fill="#fff" transform="rotate(-10.909 98.182 9.375)" d="M0 0h99.077v113.526H0z"/></clipPath></defs></svg>