<svg width="67" height="78" fill="none" xmlns="http://www.w3.org/2000/svg"><path fill-rule="evenodd" clip-rule="evenodd" d="M6.217 40.13c-3.411 13.722 4.936 27.623 18.67 31.094 13.768 3.442 27.718-4.9 31.165-18.636 2.916-11.663-2.92-21.367-8.082-29.954l-.062-.103c-3.419-5.685-6.675-11.1-6.741-16.302-2.516 4.564-7.954 7.82-13.66 11.237l-.063.037-.082.05C18.81 22.688 9.123 28.504 6.217 40.13zM41.13 26.69c-1.186-1.972-2.44-4.082-3.505-6.14-1.566 1.078-3.165 2.033-4.774 2.994h-.002l-.675.404c-.443.262-.835.601-1.159 1a4.01 4.01 0 00-.866 2.198l-.06.236c.03.46.133.908.306 1.333.029.073.048.143.063.216.665 1.441 2.404 4.221 3.377 5.772l5.618 9.79 1.677 2.97a45.131 45.131 0 013.482 7.575c.102.356.33.655.645.85l.158.04c.384.03.752-.157.96-.482a17.02 17.02 0 001.964-4.707c.916-3.852.629-7.888-.818-11.572a69.64 69.64 0 00-6.384-12.36l-.007-.117zm-4.233 25.94c-1.31-2.761-2.602-5.313-4.702-9.072-1.523 1.058-2.96 1.976-4.308 2.837-1.404.897-2.712 1.732-3.923 2.602a8.852 8.852 0 00-2.556 12.274c2.692 4.097 8.195 5.245 12.297 2.562a8.856 8.856 0 003.435-10.556 4.243 4.243 0 00-.243-.647zm-8.16-14.804a.652.652 0 01-.209.837l-7.445 4.979-2.66 1.969a15.544 15.544 0 00-2.73 2.589.622.622 0 01-.517.257l-.206-.052c-.554-.19-.943-1.394-.943-1.394a7.282 7.282 0 01-.272-.925l-.05-.264a15.19 15.19 0 011.806-8.03 21.204 21.204 0 014.568-5.648 40.242 40.242 0 013.583-2.846l.919 1.435 4.157 7.093z" fill="#DD332B"/></svg>