<svg width="230" height="49" fill="none" xmlns="http://www.w3.org/2000/svg"><g clip-path="url(#clip0)"><path d="M67.745 19.04c4.72 0 7.766 2.448 9.2 6.566h7.05c-1.733-7.82-7.946-12.714-16.25-12.714-9.917 0-17.385 7.7-17.385 17.788 0 10.087 7.468 17.548 17.385 17.548 8.304 0 14.338-5.134 16.25-12.714h-7.05c-1.434 3.88-4.54 6.566-9.2 6.566-6.512 0-10.575-4.656-10.575-11.34.06-6.746 4.063-11.7 10.575-11.7zm29.094-2.328h-.299l-.358-3.342h-5.915v34.977h6.572V26.203c0-4.656 3.584-7.222 8.304-7.222 1.015 0 1.254.06 1.254.06v-6.387s-.418-.12-1.254-.12c-2.031 0-5.735.836-8.304 4.178zm70.554-4.178c-5.854 0-9.439 2.507-10.992 4.178h-.299l-.358-3.342h-5.915v34.977h6.572V26.322c0-4.894 4.421-7.46 9.857-7.46 4.66 0 8.006 2.327 8.006 7.162v22.323h6.571V25.606c-.06-9.67-6.87-13.072-13.442-13.072zm21.866.836h6.571v34.977h-6.571V13.37zm-63.505-.477c-9.977 0-17.564 7.58-17.564 17.667 0 10.087 7.527 17.668 17.564 17.668 9.976 0 17.564-7.58 17.564-17.668 0-10.087-7.588-17.668-17.564-17.668zm0 29.008c-6.512 0-10.694-4.775-10.694-11.34 0-6.567 4.182-11.461 10.694-11.461 6.511 0 10.693 4.894 10.693 11.46 0 6.566-4.182 11.34-10.693 11.34zm91.285-14.803c-6.512-1.432-6.214-3.044-6.214-4.476 0-1.731 1.912-3.88 5.078-3.88 2.629 0 5.437 1.313 5.437 5.73h6.333c.238-7.163-4.481-11.52-11.77-11.52-6.452 0-11.649 4.477-11.649 9.968 0 6.924 5.496 9.073 11.47 10.386 6.333 1.373 6.871 3.342 6.871 4.715 0 2.626-2.689 4.894-6.453 4.894-2.688 0-6.81-1.67-6.81-6.744h-6.333c-.418 7.998 5.377 12.594 13.143 12.594 7.349 0 13.144-4.715 13.144-10.983-.06-7.162-6.333-9.43-12.247-10.684zM22.521 0L.714 48.347h6.99l4.241-9.73H39.07l4.241 9.73h6.93L28.554 0H22.52zm2.867 8.237h.299l.358.895L32.2 23.218H18.876L25.03 9.132l.358-.895zm-10.992 24.89l2.03-4.537h18.162l2.031 4.537H14.396z" fill="#2A1D69"/></g><defs><clipPath id="clip0"><path fill="#fff" d="M0 0h230v49H0z"/></clipPath></defs></svg>