<svg width="218" height="61" fill="none" xmlns="http://www.w3.org/2000/svg"><path fill-rule="evenodd" clip-rule="evenodd" d="M4.744 19.548c-1.273-1.31-1.865-3.442-1.865-6.517V5.298c0-3.23-.255-3.319-1.584-3.532l-.481-.092C.617 1.461.644.944.87.822c2.478.122 4.96.122 7.437 0 .226.123.253.64.056.852l-.623.092c-1.33.213-1.583.304-1.583 3.532v6.973c0 4.202 1.187 7.733 5.118 7.733 3.703 0 5.23-3.015 5.23-7.644V8.556c0-2.286-.028-5.117-.537-6-.255-.457-.708-.671-1.414-.79l-.566-.092c-.255-.213-.226-.76.056-.853.962.063 2.037.093 3.139.093 1.186 0 1.95-.03 2.996-.093.227.153.283.64.057.853l-.623.152c-.537.12-1.045.244-1.244.73-.395.912-.395 3.594-.395 6v3.622c0 2.771-.396 5.329-1.866 7.034-1.47 1.704-3.59 2.285-5.54 2.285-2.657.002-4.524-.609-5.824-1.948zm35.71-16.992c-.397.946-.397 3.594-.397 6v7.277c0 .913 0 4.658.085 5.358-.226.336-.622.456-.96.427-.453-.64-1.274-1.673-3.308-4.171l-6.616-8.13c-1.838-2.223-2.744-3.38-3.223-3.839-.085 0-.085.336-.085 1.95v5.938c0 2.285.028 5.087.508 6 .255.456.736.64 1.443.76l.622.092c.254.213.226.79-.056.884a56.805 56.805 0 00-3.223-.093c-1.188 0-1.951.032-2.94.093-.227-.153-.283-.671-.057-.884l.62-.152c.54-.09 1.048-.213 1.246-.7.368-.944.368-3.592.368-6V6.152c0-2.376.028-2.866-.932-3.749-.311-.273-1.103-.516-1.498-.607l-.425-.093c-.197-.183-.168-.789.113-.883 1.074.123 2.63.093 3.336.093.594 0 1.273-.03 1.952-.093.48 1.31 3.563 5.148 4.552 6.304l2.827 3.29c1.188 1.4 3.816 4.628 4.1 4.812.085-.09.085-.244.085-.73V8.56c0-2.286-.029-5.088-.537-6-.254-.457-.708-.64-1.415-.76l-.65-.093c-.255-.213-.226-.79.056-.883 1.102.063 2.148.092 3.25.092 1.216 0 1.952-.029 2.968-.092.227.153.283.67.057.883l-.65.153c-.538.087-1.02.21-1.217.697zm11.392-.76c-1.329.183-1.583.273-1.583 3.502v11.326c0 3.229.254 3.321 1.583 3.502l.622.092c.199.213.17.76-.056.884a78.366 78.366 0 00-7.578 0c-.226-.124-.255-.671-.056-.884l.622-.092c1.33-.18 1.583-.273 1.583-3.502V5.298c0-3.23-.254-3.319-1.583-3.502l-.622-.093c-.199-.212-.17-.76.056-.883 1.244.063 2.517.093 3.818.093 1.244 0 2.516-.03 3.76-.093.226.123.255.67.056.883l-.622.093zm19.367 1.306c-.792 1.462-1.612 3.504-2.884 6.58l-1.583 3.774c-1.132 2.772-2.46 6.334-2.941 7.888-.056.09-.282.152-.48.152-.188 0-.373-.053-.537-.152-.34-1.22-.792-2.71-1.3-3.99l-4.949-12.82c-.79-2.04-1.045-2.467-2.177-2.71l-.678-.153c-.198-.213-.198-.76.083-.852C54.87.882 56.086.91 57.19.91c1.273 0 2.234-.03 3.731-.092.255.183.283.67.028.883l-.706.183c-.622.153-.848.307-.848.55 0 .273.226.944 1.385 4.05l2.035 5.42c.51 1.37 1.273 3.167 1.556 3.87 1.526-3.839 3.223-8.04 4.722-12.182.452-1.22.367-1.463-.481-1.675l-.821-.213c-.197-.244-.169-.73.056-.883 1.16.063 2.121.092 3.026.092 1.018 0 1.951-.03 2.742-.092.226.152.198.64.056.883l-.707.152c-.647.152-1.27.364-1.75 1.245zm3.42 16.993c1.33-.15 1.584-.243 1.584-3.471V5.298c0-3.23-.254-3.319-1.584-3.532l-.452-.063c-.197-.212-.17-.76.056-.883 1.075.063 2.403.093 3.647.093h5.4c1.81 0 3.45-.03 3.817-.093.113.52.283 2.926.453 4.234-.112.244-.678.304-.904.12-.454-1.766-.877-2.529-1.782-2.77-.65-.21-1.497-.274-2.26-.274h-1.896c-1.215 0-1.215.063-1.215 1.796v5.148c0 .792.027.823.678.823h1.358c2.46 0 2.94-.03 3.138-1.34l.197-1.035c.226-.213.764-.213.905.03-.03.822-.084 1.918-.084 3.045 0 1.156.055 2.223.084 3.195-.141.216-.679.216-.905.033l-.197-1.22c-.197-1.279-.678-1.339-3.138-1.339h-1.358c-.651 0-.678.06-.678.823v3.866c0 1.552.056 2.65.48 3.169.339.427.82.67 3.195.67 3.59.06 4.213-.823 5.202-3.29.254-.212.734-.122.904.184-.169 1.28-.79 3.592-1.188 4.415-1.243-.06-3.675-.093-6.982-.093h-3.224c-1.245 0-2.968.033-4.241.093-.225-.123-.254-.67-.057-.883l1.047-.125zM101.72 6.543c0 2.892-1.273 4.355-4.044 4.355-1.358 0-1.358-.06-1.358-1.033V3.53c0-1.402.03-1.492 1.5-1.492 2.461-.001 3.902 2.098 3.902 4.504zM90.833 20.218c-.253.213-.17.76.058.884a78.34 78.34 0 017.576 0c.227-.124.255-.671.058-.884l-.624-.092c-1.329-.18-1.582-.273-1.582-3.502v-3.895c0-.64.028-.67.875-.67.934 0 1.245.12 1.754 1.032.679 1.19 1.471 2.863 2.234 4.142 1.724 2.831 3.194 4.021 5.909 4.021.988 0 1.525-.092 1.866-.183.084-.153.084-.487-.056-.61-.339-.03-1.159-.213-1.951-.944-1.33-1.19-2.744-3.778-5.005-7.887-.113-.184-.17-.427 0-.52 1.386-.61 3.393-2.01 3.393-4.811 0-2.192-1.047-3.623-2.488-4.446-1.243-.73-3.166-1.036-5.372-1.036-2.319 0-4.722.093-6.503.276-.227.15-.227.637-.028.85l.734.092c1.33.153 1.357.517 1.357 3.44V16.62c0 3.229-.255 3.321-1.583 3.502l-.622.096zm30.901-4.658c0 3.471-2.458 5.937-6.558 5.937-2.601 0-4.071-.912-4.639-1.279-.508-.64-.874-2.742-.847-4.631.17-.304.651-.333.877-.12.509 1.552 2.035 4.811 4.805 4.811 2.15 0 3.367-1.4 3.367-3.258 0-1.736-.766-3.135-2.885-4.415l-1.215-.729c-2.122-1.28-3.988-3.138-3.988-5.877 0-3.015 2.094-5.573 6.221-5.573 1.468 0 2.545.366 3.873.64.311.67.592 2.68.592 4.111-.14.273-.648.304-.903.093-.424-1.586-1.414-3.625-3.817-3.625-2.261 0-3.195 1.583-3.195 3.198 0 1.276.822 2.65 2.686 3.715l1.754 1.003c1.837 1.034 3.872 2.923 3.872 6zm9.813-13.764c-1.331.183-1.583.273-1.583 3.502v11.326c0 3.229.252 3.321 1.583 3.502l.621.092c.198.213.171.76-.056.884a78.348 78.348 0 00-7.577 0c-.227-.124-.252-.671-.056-.884l.621-.092c1.33-.18 1.582-.273 1.582-3.502V5.298c0-3.23-.252-3.319-1.582-3.502l-.621-.093c-.196-.212-.171-.76.056-.883 1.243.063 2.517.093 3.819.093 1.24 0 2.515-.03 3.758-.093.227.123.254.67.056.883l-.621.093zm8.707 18.268c1.328-.12 1.583-.212 1.583-3.442V3.468c0-1.276-.028-1.34-.763-1.34h-1.583c-2.601 0-3.364.337-4.411 2.803-.196.183-.791.092-.903-.213A53.973 53.973 0 00135.28.12c.056-.09.168-.12.308-.12.115 0 .228.03.284.12.142.763.538.793 2.461.793h11.535c1.384 0 1.81-.093 2.148-.793.115-.06.227-.12.339-.12.172 0 .311.06.368.15-.281 1.25-.509 3.868-.424 4.841-.14.244-.621.307-.875.093-.368-2.376-.906-2.955-3.932-2.955h-1.61c-.735 0-.763.063-.763 1.34v13.153c0 3.23.255 3.322 1.582 3.472l1.019.123c.196.213.168.76-.057.883a111.514 111.514 0 00-4.158-.092 131.7 131.7 0 00-4.381.092c-.228-.123-.255-.732-.057-.883l1.187-.153zm18.432.031c1.331-.15 1.583-.243 1.583-3.471v-1.796c0-1.706-.112-2.162-.903-3.775l-3.393-7.217c-.623-1.31-.847-1.675-2.121-1.95l-.735-.183c-.168-.212-.112-.789.115-.883a68.83 68.83 0 003.562.093c1.243 0 2.968-.03 3.62-.093.228.123.281.67.056.883l-.846.153c-.453.06-.595.153-.595.396 0 .244.112.577.508 1.583 1.133 2.619 2.15 5.085 3.281 7.308a493.187 493.187 0 003.308-6.728c.479-1.036.763-1.707.763-2.043 0-.303-.252-.393-.651-.456l-.847-.213c-.196-.212-.196-.729.084-.883 1.245.063 2.121.093 2.968.093.878 0 1.781-.03 2.688-.093.253.153.253.64.057.883l-.822.184c-1.272.243-1.611.823-3.081 3.502-.959 1.735-1.81 3.412-2.686 5.114-.849 1.586-1.047 2.226-1.047 4.294v1.827c0 3.229.255 3.321 1.642 3.471l1.072.123c.198.213.171.76-.057.884a122.46 122.46 0 00-4.268-.093c-1.299 0-2.574.032-4.1.093-.228-.124-.255-.671-.056-.884l.901-.123zm31.044.183c-4.835 0-6.502-5.724-6.502-9.926 0-6.488 3.08-8.71 5.907-8.71 4.497 0 6.42 5.328 6.42 9.926 0 6.121-2.601 8.71-5.825 8.71zm-.283 1.22c5.713 0 9.953-4.478 9.953-10.476 0-5.544-3.364-10.598-9.894-10.598-5.937 0-10.121 4.6-10.121 10.813-.001 5.42 3.673 10.26 10.062 10.26zM202.481.817c.99.064 2.261.093 3.508.093h5.342c1.811 0 3.393-.03 3.988-.092 0 .67 0 2.955.056 4.385-.115.244-.623.307-.906.123-.28-1.766-.734-2.65-1.81-2.955-.763-.212-1.467-.243-2.373-.243h-1.443c-1.187 0-1.187.063-1.187 1.766v5.452c0 .763.028.823.68.823h1.666c2.461 0 2.913-.06 3.168-1.34l.225-1.035c.171-.213.707-.213.85.03-.028.791-.084 1.918-.084 3.045s.056 2.223.084 3.169c-.143.243-.68.243-.85.03l-.225-1.19c-.255-1.28-.707-1.34-3.168-1.34h-1.666c-.651 0-.68.06-.68.823v4.262c0 3.229.255 3.321 1.583 3.442l1.187.152c.198.213.171.76-.056.884a128.393 128.393 0 00-4.325-.093c-1.246 0-2.518.032-3.817.093-.227-.124-.255-.671-.058-.884l.623-.092c1.33-.18 1.583-.273 1.583-3.502V5.298c0-3.23-.253-3.319-1.583-3.532l-.367-.063c-.198-.214-.173-.761.055-.884zM22.112 34.558c.436.117.69.155 1.017.235.073.9.145 3.21.51 6.106-.254.313-.908.353-1.163.08-.618-2.469-2.255-5.719-7.053-5.719-4.616 0-9.269 3.524-9.269 11.55 0 8.34 4.835 12.411 9.524 12.411 4.58 0 6.58-3.29 7.596-5.834.327-.35.91-.194 1.092.158-.255 2.622-1.237 5.209-1.745 5.952-.435.077-.872.235-1.273.353-.8.273-3.308.937-5.67.937-3.6 0-6.688-.782-9.306-2.621-2.944-2.075-5.162-5.64-5.162-10.768 0-4.578 1.89-8.143 4.58-10.374 2.69-2.192 6.36-3.327 10.033-3.327 2.072 0 4.581.39 6.29.86zM34 43.091c.654-1.84.945-2.82 1.09-3.092h.072c.182.273.4 1.017 1.017 3.092l1.528 4.696c.29.94.145 1.02-.872 1.02h-3.78c-.873 0-.982 0-.583-1.137L34 43.091zm6.506 13.86c.474 1.68.364 1.918-.944 2.074l-.8.117c-.219.235-.183.94.108 1.135 1.272-.038 2.872-.117 4.435-.117 1.89 0 3.234.038 4.726.117.255-.194.255-.86-.037-1.135l-.545-.117c-1.853-.353-2.036-.626-2.871-3.25L39.342 39.37c-.581-1.76-1.054-3.6-1.635-5.364a.734.734 0 00-.272-.24.679.679 0 00-.346-.072c-.073 0-1.272 1.604-2.545 1.879.109.667-.218 1.604-.69 2.86l-4.98 13.936c-.763 2.113-1.345 3.76-1.782 4.775-.545 1.294-.945 1.646-2 1.802l-1.09.197c-.253.353-.218.94.037 1.135a55.88 55.88 0 013.598-.117c1.49.038 2.69.038 3.853.117.291-.155.327-.86.073-1.135l-1.053-.197c-1.345-.195-1.49-.315-.764-2.622l1.492-4.698c.326-1.059.291-1.059 1.235-1.059h4.834c1.017 0 1.127 0 1.49 1.059l1.709 5.325zm36.314-1.059c.11 2.624.51 2.897 1.672 3.054l1.054.197c.363.156.327.979-.072 1.136a85.237 85.237 0 00-4.436-.118 96.034 96.034 0 00-4.87.118c-.292-.156-.436-.9-.074-1.136l.981-.197c1.454-.235 1.564-.547 1.564-3.21V39.724h-.074c-.98 2.154-1.49 3.33-2.18 4.893l-3.126 6.892c-1.236 2.74-3.053 7.085-3.708 8.928-.145.156-.691.156-.946 0-.617-2.116-2.18-5.954-3.017-7.91l-3.234-7.515c-.73-1.75-1.434-3.512-2.108-5.287h-.072c-.074 1.919-.145 4.973-.219 6.62a317.1 317.1 0 00-.145 9.08c0 2.587.035 3.21 1.601 3.485l1.199.236c.253.235.253.978-.035 1.135a60.93 60.93 0 00-3.818-.118c-1.163 0-2.473.038-3.89.118-.327-.195-.327-.94-.108-1.136l.618-.08c1.745-.234 2.036-.822 2.253-3.209.29-2.469.364-5.013.545-9.084.145-2.662.364-5.913.364-8.3 0-1.839-.545-2.662-1.962-2.897l-1.237-.235c-.218-.273-.181-1.018.145-1.135 1.09.08 2.072.117 3.417.117 1.273 0 2.545 0 3.89-.117.145 2.348 1.09 4.385 2 6.498l3.998 9.047a85.32 85.32 0 001.709 3.524c.581-1.137 1.09-2.234 1.89-4.073l3.417-7.518c1.163-2.584 2.327-4.893 2.944-7.477.981.08 2.181.118 2.98.118 1.527 0 2.8-.038 3.817-.118.4.156.473.9.11 1.135l-1.2.198c-1.598.235-1.962.9-1.962 2.974-.002 5.793.071 11.585.325 17.381zm21.156-2.427c0 3.485-2.217 5.246-4.726 5.246-3.162 0-3.525-1.449-3.525-5.01v-5.637c0-.785.072-1.02 1.671-1.02 4.036 0 6.58 2.389 6.58 6.421zM82.67 59.143c-.255.273-.218.978.073 1.135a100.73 100.73 0 014.907-.117c1.381 0 2.908.117 4.508.117 4.143 0 6.542-.665 8.252-2.192 1.671-1.448 2.216-3.406 2.216-5.208 0-4.423-3.09-6.342-5.852-6.812-.218-.077-.292-.155-.292-.235 0-.077.074-.195.219-.233 2.544-.902 4.107-2.662 4.107-4.972 0-2.47-.871-4.033-2.544-5.091-1.635-1.02-4.071-1.331-7.125-1.331-3.998 0-6.652.194-8.288.352-.29.198-.29.82-.036 1.096l.947.118c1.708.195 1.744.665 1.744 4.423v14.33c0 4.15-.328 4.267-2.036 4.503l-.8.117 13.595-18.56c0 3.525-1.563 4.974-4.98 4.974-1.454 0-1.564-.038-1.564-1.059v-7.085c0-1.563.109-1.643 1.927-1.643 2.254 0 4.616 1.37 4.616 4.813l-13.594 18.56zm36.786-17.58c0 3.72-1.633 5.599-5.197 5.599-1.747 0-1.747-.077-1.747-1.331v-8.144c0-1.798.038-1.916 1.928-1.916 3.163-.001 5.016 2.7 5.016 5.792zm-13.995 17.58c-.326.273-.218.978.073 1.135 1.635-.078 3.272-.117 4.908-.117 1.599 0 3.235.038 4.835.117.291-.155.326-.86.072-1.135l-.799-.117c-1.708-.236-2.038-.353-2.038-4.503v-5.011c0-.823.038-.864 1.128-.864 1.2 0 1.599.158 2.255 1.331.873 1.529 1.889 3.683 2.871 5.326 2.218 3.642 4.108 5.17 7.597 5.17 1.274 0 1.963-.118 2.399-.236.11-.197.11-.626-.074-.785-.434-.038-1.489-.273-2.507-1.214-1.708-1.525-3.525-4.855-6.436-10.139-.145-.235-.217-.547 0-.665 1.782-.785 4.363-2.586 4.363-6.186 0-2.82-1.345-4.658-3.198-5.717-1.601-.94-4.071-1.33-6.908-1.33-2.978 0-6.069.117-8.359.352-.291.197-.291.82-.037 1.096l.947.118c1.708.194 1.743.664 1.743 4.423v14.33c0 4.15-.327 4.267-2.035 4.502l-.8.12zm32.934-23.688c-1.709.235-2.035.353-2.035 4.503v14.565c0 4.15.326 4.267 2.035 4.503l.801.117c.252.273.217.978-.075 1.135a100.66 100.66 0 00-9.741 0c-.291-.155-.326-.86-.074-1.135l.798-.117c1.711-.236 2.038-.353 2.038-4.503V39.958c0-4.15-.327-4.268-2.038-4.503l-.798-.117c-.252-.273-.217-.979.074-1.136a98.51 98.51 0 004.907.118c1.601 0 3.237-.038 4.834-.118.292.156.327.861.075 1.136l-.801.117zm14.068.315c6.071 0 10.252 3.757 10.252 11.51 0 6.618-2.908 11.55-9.379 11.55-3.854 0-4.108-2.034-4.108-5.834V39.215c0-1.84.035-2.663.292-2.898.256-.235 1.416-.547 2.943-.547zm-10.287 23.373c-.255.273-.217.978.074 1.135a95.592 95.592 0 014.615-.117c1.345 0 3.053.235 5.271.235 3.308 0 6.436-.47 9.016-1.879 4.505-2.469 6.507-6.93 6.507-11.277 0-5.834-3.091-9.983-7.454-11.705-2.651-1.02-5.126-1.331-8.576-1.331-3.564 0-6.471.117-9.087.352-.292.198-.292.9-.038 1.096l.763.077c1.711.236 1.746.706 1.746 4.464v14.33c0 4.15-.327 4.267-2.037 4.503l-.8.117zm52.454-8.26c-1.345.194-1.562.55-1.562 2.936v2.271c0 1.37.182 2.387.87 2.74.11.158.11.47-.035.587-.401 0-1.055.118-1.746.315-2.252.548-4.981 1.056-7.051 1.056-4.363 0-8.469-1.253-11.196-4.306-2.144-2.389-3.198-5.678-3.198-8.966 0-3.288 1.055-6.657 3.345-9.201 2.581-2.937 6.542-4.618 11.594-4.618 1.711 0 3.564.312 4.837.588.835.195 1.889.35 2.325.35.035 1.176.292 3.172.472 6.224-.182.393-.98.433-1.165.08-.798-3.797-3.379-5.678-6.979-5.678-6.397 0-9.488 4.972-9.488 11.63 0 3.132.656 6.498 2.619 9.005 1.963 2.507 4.871 3.327 7.014 3.327 1.746 0 2.799-.312 3.235-.9.22-.353.329-1.058.329-2.466v-1.411c0-2.78-.037-3.012-2.474-3.445l-1.307-.235c-.255-.273-.255-.94.036-1.135 1.416.077 3.163.117 5.669.117a83.04 83.04 0 004.435-.117c.365.194.401.86.074 1.135l-.653.116zm3.853 8.105c1.708-.198 2.035-.315 2.035-4.464V39.96c0-4.15-.327-4.267-2.035-4.54l-.582-.08c-.252-.273-.217-.978.075-1.135 1.562.082 3.125.12 4.689.117h6.942c2.327 0 4.437-.038 4.909-.117.145.665.364 3.76.581 5.443-.145.312-.873.39-1.164.156-.582-2.272-1.126-3.25-2.29-3.563-.835-.275-1.928-.352-2.908-.352h-2.435c-1.565 0-1.565.077-1.565 2.309v6.616c0 1.018.036 1.058.874 1.058h1.743c3.166 0 3.784-.04 4.036-1.721l.255-1.331c.291-.276.983-.276 1.164.037-.035 1.059-.109 2.467-.109 3.915 0 1.487.074 2.86.109 4.113-.181.273-.873.273-1.164.037l-.255-1.566c-.252-1.643-.87-1.721-4.036-1.721h-1.743c-.838 0-.874.08-.874 1.058v4.973c0 1.996.075 3.407.619 4.07.436.55 1.054.86 4.107.86 4.618.08 5.419-1.054 6.691-4.226.327-.276.945-.158 1.164.235-.219 1.643-1.018 4.617-1.529 5.676-1.598-.08-4.724-.118-8.977-.118h-4.144c-1.601 0-3.818.038-5.452.118-.292-.156-.33-.861-.075-1.136l1.344-.156z" fill="#2A1D69"/></svg>