<svg width="1920" height="666" fill="none" xmlns="http://www.w3.org/2000/svg"><g opacity=".1" fill="#7267A4"><path d="M1157.46 95.576c9.28.008 18.54.846 27.65 2.503 27.58 5.006 54.42 17.483 82.15 38.123 51.78 38.507 98.54 99.58 148.1 164.234 68.01 88.798 138.34 180.562 231.37 228.888 105.87 55.028 224.17 42.166 361.74-39.239l.53.809c-309.03 182.834-460.61-15.172-594.45-189.726-49.52-64.616-96.28-125.65-147.9-164.042-57.85-43.052-113.64-51.523-175.58-26.686-83.04 33.271-160.166 78.401-241.866 126.189C602.241 380.994 347.181 530.326-66.665 324.08l.486-.848c413.279 205.977 668.258 56.799 914.978-87.45 81.579-47.942 158.871-93.073 241.861-126.382 21.06-8.846 43.78-13.549 66.8-13.824z"/><path d="M1115.8 99.85c113.61 0 197.86 96.77 286.48 198.545 70.97 81.289 143.85 165.351 236.96 206.246 105.47 46.209 221.87 28.804 355.83-53.602l.65.885c-72.02 44.284-137.33 69.314-199.72 77.015-53.64 6.865-108.23-1.158-157.2-23.104-93.4-41.049-166.68-125.188-237.57-206.593-100.12-114.945-194.66-223.343-331.99-192.845-111.088 24.76-212.262 86.372-319.428 151.604-110.931 67.542-225.627 137.394-357.57 168.162-69.48 16.54-141.607 20.524-212.632 11.745-80.971-9.858-162.348-35.273-248.744-77.747l.486-.924c359.837 176.749 592.671 34.965 817.812-102.122C856.411 191.652 957.666 130.04 1069 105.357a212.33 212.33 0 0146.8-5.507z"/><path d="M1061.92 100.542c57.16 0 112.67 18.522 169.19 56.414 54.65 36.659 105.66 87.989 154.98 137.587 74.08 74.55 150.68 151.604 244.37 185.567 105.26 38.238 220.4 15.943 351.66-68.158l.68 1.001c-293.72 188.148-448.21 32.732-597.61-117.601-102.59-103.201-199.43-200.663-337.57-193.27-130.239 7.009-246.959 84.717-370.319 166.738-102.753 68.389-208.988 139.089-330.162 173.284-62.865 18.277-128.868 24.751-194.331 19.061-73.563-6.393-146.923-27.726-224.332-65.155l.567-1.078c322.186 155.84 538.461 12.014 747.448-127.075 123.725-82.213 240.485-159.921 371.089-166.93 4.62-.269 9.56-.385 14.34-.385z"/><path d="M994.426 94.998c10.564.013 21.124.58 31.624 1.695 136.72 14.748 238.86 104.625 337.81 191.536 82.02 72.124 159.55 140.244 254.57 167.854 107.45 31.268 218.63 4.814 350.53-83.176l.77 1.04c-69.72 46.632-133.32 75.513-194.33 88.567-51.98 11.596-106.26 9.855-157.29-5.045-95.34-27.687-172.92-95.922-255.06-168.162-98.7-86.757-200.73-176.48-337.04-191.151-144.053-15.403-270.935 78.478-405.308 178.02-96.518 71.2-196.032 145.058-308.906 183.796-127.733 43.86-253.846 34.657-385.586-27.879l.607-1.155c293.765 139.705 496.679-10.59 692.914-155.917 124.777-92.38 242.995-179.984 374.695-180.023z"/><path d="M938.637 83.947a257.148 257.148 0 0165.873 8.587c129.84 34.002 229.59 110.863 326.11 185.221 88.79 68.428 172.63 133.043 270.53 155.262 109.55 24.876 222.22-6.623 354.61-99.157l.85 1.117c-132.71 92.803-245.79 124.379-355.79 99.388-98.22-22.296-182.18-87.027-271.25-155.532-96.36-74.243-196.03-151.026-325.55-184.836-154.735-40.548-288.824 70.546-430.767 188.186-91.093 75.475-185.303 153.568-290.931 197.12C162.566 528.669 45.278 525.05-76.26 468.29l.648-1.271c270.93 126.536 462.55-32.308 647.772-185.876C694.184 180.061 810.216 83.947 938.637 83.947z"/><path d="M892.16 69.852c31.299.144 62.229 6.437 90.85 18.484 114.05 46.748 209.72 112.634 294.13 170.781 104.29 71.816 194.33 133.852 297.97 152.412 114.17 20.448 230.77-16.635 367.45-116.716l.98 1.194c-136.93 100.35-254.09 137.51-368.71 116.832-103.97-18.599-194.33-80.866-298.62-152.683-84.33-58.069-179.92-123.917-293.807-170.588-163.886-67.157-303.036 61.612-450.364 198.314-86.437 80.095-175.789 162.925-275.303 211.406C144.105 554.2 34.429 555.74-78.567 504.024l.688-1.347C173.7 617.853 355.32 449.575 530.906 286.804 650.784 175.902 765.237 69.852 892.16 69.852z"/><path d="M851.269 53.91c35.587 0 72.186 9.28 110.202 30.267 82.589 45.555 156.959 93.997 222.669 136.74 125.91 82.021 234.82 152.875 349.48 171.32 123.48 19.87 249.27-23.489 395.91-136.47l1.05 1.232c-77.57 59.571-147.85 99.349-215.06 121.183-61.98 20.255-121.46 25.338-182.19 15.403-115.18-18.522-224.05-89.453-350.12-171.589-65.59-42.705-139.92-91.148-222.67-136.663-172.226-95.037-315.019 52.639-466.153 208.98-82.064 85.178-166.882 173.014-260.769 226.347-106.153 60.418-209.028 66.81-314.534 19.562l.73-1.464c104.938 47.018 207.286 40.664 312.954-19.254 93.563-53.448 178.38-141.322 260.445-226.038C611.593 171.05 724.832 53.911 851.269 53.911z"/><path d="M813.982 36.736c40.485 0 82.105 13.093 125.991 43.283a7862.065 7862.065 0 0162.627 43.244c179.56 124.34 321.42 222.496 459.44 250.683 144.13 29.382 284.21-19.253 454.17-157.226l1.17 1.31c-88.54 71.932-168.1 119.065-243.2 144.095-68.08 23.511-141.78 28.184-212.55 13.477-138.38-28.226-280.36-126.497-460.08-250.953a9138.223 9138.223 0 00-62.71-43.244C758.557-42.627 613.253 124.65 459.407 301.745c-78.056 89.876-158.785 182.833-247.287 240.98-100.081 65.771-196.72 76.745-295.546 33.54l.729-1.541c98.137 42.898 194.332 32 293.724-33.424 88.259-57.992 168.907-150.834 246.963-240.633 117.207-134.815 229.352-263.93 355.992-263.93z"/><path d="M779.489 18.715c46.518 0 92.145 18.792 138.947 57.145 417.004 341.446 628.384 408.179 984.574 101.814l1.29 1.347c-181.13 155.763-321.94 213.293-470.89 192.345-157.36-22.103-320.2-133.582-516.229-294.158-52.632-42.975-103.482-61.227-155.789-55.72-119.19 12.553-223.968 146.328-334.858 288.266-150.202 192.037-305.506 390.62-512.186 302.554l.81-1.656c205.222 87.45 360.081-110.517 509.837-301.976C536.169 166.545 641.189 32.308 761.027 19.87a173.285 173.285 0 0118.462-1.155z"/><path d="M746.492 0c50.081 0 99.434 23.567 150.365 71.7C1110.82 273.866 1274.67 366.015 1428.11 370.52c141.26 4.12 279.35-65.232 461.54-231.892l1.42 1.386c-182.84 167.084-321.34 236.59-463.16 232.431-153.85-4.505-318.3-96.846-532.632-299.395-55.587-52.525-109.312-75.59-163.927-70.43C610.136 14.17 505.643 162 394.995 318.648 252.89 520.198 105.724 728.6-88 648.389l.81-1.771c192.023 79.518 338.825-128.153 480.687-329.008C504.387 160.538 609.124 12.36 731.31.809 736.357.269 741.418 0 746.492 0z"/></g></svg>