<svg width="78" height="84" fill="none" xmlns="http://www.w3.org/2000/svg"><path fill-rule="evenodd" clip-rule="evenodd" d="M12.818 35.824c-7.054 12.253-2.852 27.915 9.397 35.028 12.291 7.096 27.997 2.913 35.09-9.344 6.01-10.411 3.07-21.346.468-31.022l-.031-.116c-1.723-6.406-3.364-12.508-1.998-17.528-3.674 3.696-9.797 5.33-16.224 7.046l-.07.02-.092.024c-9.637 2.586-20.548 5.514-26.54 15.892zm37.262-3.32c-.597-2.222-1.222-4.595-1.681-6.867-1.802.606-3.602 1.084-5.413 1.565h-.002l-.76.202c-.498.13-.968.348-1.389.643a4.01 4.01 0 00-1.438 1.875l-.122.21c-.097.45-.122.91-.073 1.366.008.078.008.15.001.225.243 1.569 1.15 4.72 1.66 6.478L43.57 49.16l.796 3.316a45.132 45.132 0 011.264 8.24c0 .371.137.721.386.995l.141.082c.36.135.767.057 1.055-.2a17.023 17.023 0 003.183-3.984 19.378 19.378 0 002.397-11.351 69.644 69.644 0 00-2.738-13.638l.025-.116zM38.876 56.278c-.5-3.015-1.04-5.824-2.026-10.015-1.755.598-3.389 1.085-4.922 1.542-1.596.476-3.084.92-4.487 1.423a8.852 8.852 0 00-5.833 11.098c1.46 4.68 6.436 7.296 11.117 5.845a8.856 8.856 0 006.207-9.204c0-.235-.02-.464-.056-.69zm-3.773-16.477a.652.652 0 01-.431.747l-8.528 2.74-3.098 1.16a15.546 15.546 0 00-3.338 1.738.622.622 0 01-.567.105l-.184-.106c-.48-.335-.523-1.6-.523-1.6a7.255 7.255 0 01-.008-.963l.024-.268a15.188 15.188 0 013.946-7.224 21.204 21.204 0 015.945-4.174 40.249 40.249 0 014.228-1.75l.488 1.632 2.046 7.963z" fill="#02BAF5"/></svg>