<svg width="56" height="57" fill="none" xmlns="http://www.w3.org/2000/svg"><path fill-rule="evenodd" clip-rule="evenodd" d="M18.948 43.959c6.26 6.966 16.985 7.55 23.988 1.304 7-6.274 7.605-17.023 1.35-24.015-5.315-5.93-12.804-6.332-19.432-6.689l-.08-.004c-4.387-.236-8.567-.46-11.445-2.355 1.57 3.074 1.336 7.266 1.092 11.665l-.003.048-.003.063c-.359 6.6-.765 14.072 4.533 19.983zm5.59-24.141c-1.521-.082-3.144-.178-4.668-.357.01 1.259-.06 2.49-.131 3.73v.006l-.03.515c-.02.34.02.682.118 1.007.159.509.466.96.884 1.292l.108.12c.263.154.547.265.845.327.05.012.096.027.141.046 1.038.17 3.208.249 4.42.29l7.457.554 2.251.183c1.841.133 3.664.434 5.448.903a.976.976 0 00.706-.038l.08-.072a.69.69 0 00.093-.705 11.277 11.277 0 00-1.853-2.825 12.837 12.837 0 00-6.651-3.849 46.135 46.135 0 00-9.15-1.087l-.068-.04zm12.658 11.954c-2.001-.307-3.88-.546-6.722-.79a86.09 86.09 0 01-.044 3.417c-.03 1.103-.056 2.13-.03 3.118a5.864 5.864 0 005.785 5.96 5.89 5.89 0 005.97-5.794 5.866 5.866 0 00-4.514-5.804 2.809 2.809 0 00-.445-.107zm-11.15-1.021a.432.432 0 01.381.425l-.033 5.933.092 2.19c.037.835.17 1.658.406 2.459a.412.412 0 01-.05.379l-.105.094c-.31.233-1.115 0-1.115 0a4.818 4.818 0 01-.609-.195l-.163-.07a10.06 10.06 0 01-3.735-3.973 14.047 14.047 0 01-1.401-4.603 26.632 26.632 0 01-.23-3.022l1.128.029 5.434.354z" fill="#DD332B"/></svg>