<svg width="134" height="110" fill="none" xmlns="http://www.w3.org/2000/svg"><g clip-path="url(#clip0)"><path d="M117.2 55c0 30.167-24.942 54.995-55.25 54.995-30.309 0-55.252-24.83-55.252-54.995C6.698 24.831 31.058.005 61.95.005 91.672.005 117.2 24.833 117.2 55z" fill="#2A1D69"/><path d="M74.412 83.945c23.605 9.675 19.51-14.774 6.926-33.495-7.131-10.606-16.432-19.443-22.298-23.707-19.451-14.145-31.459-5.566-17.724 22.33 4.441 9.019 10.145 15.106 14.6 20.843 3.402 4.38 10.029 6.574 7.694 8.652-2.63 2.344-9-7.994-9-7.994-4.704-5.653-9.188-11.685-13.81-19.963-10.557-18.906-9.035-38.203 10.077-29.797 16.218 7.137 31.71 27.155 37.94 41.37 2.876 6.565 10.72 32.536-14.262 22.036" fill="#fff"/><path d="M1.008 71.302c10.384-6.89 20.23-11.34 36.985-16.854 23.544-7.75 41.263-12.959 63.006-23.848 9.732-4.873 26.619-15.801 32.657-25.3-1.808 3.676-7.409 10.833-9.943 13.998C94.213 56.1 31.377 54.014 1.423 71.682" fill="#7267A4"/><path d="M16.073 44.404c9.504.074 8.571-.02 8.682.092.166 0 7.589 12.736 7.589 12.846 0 .054-.055-4.526-.055-10.255 0-.661-1.827-2.59-1.773-2.59 2.713 0 6.259.054 6.259.054-1.329 1.544-1.594 1.417-1.606 2.371a675.967 675.967 0 000 15.106c.01.955.72 1.323 1.884 2.977h-8.697a1552.023 1552.023 0 01-7.976-13.451c.04.04-.111 5.514.054 9.923.056 1.458.721 1.93 1.94 3.254 0 0 1.402-.037-6.813.055 2.492-1.324 2.161-2.978 2.16-3.033-.09-6.093-.019-11.303-.019-14.666 0-.551-.037-.497-1.754-2.591l.125-.092zm29.716 9.41c.798-2.76 1.48-5.227 1.803-6.837.055-.275-.609-1.267-1.661-2.26l-.075-.154c5.075.016 10.377.045 10.377.045 1.385 3.362 4.541 12.79 6.924 18.58.63 1.528 1.717 1.818 1.717 1.818-4.32-.054-12.338-.017-12.296-.054 2.16-1.931 1.883-1.931.941-4.74h-6.757c-1.385 3.196.432 4.697.664 4.685-1.538.08-6.757 0-6.757 0 2.825-1.986 2.658-2.592 2.658-2.592.776-2.75 1.675-5.764 2.462-8.491h2.773l-1.191 3.804h5.374l-2.992-7.609-1.19 3.804H45.79l-.001.001zm46.419.276c.796-2.76 1.479-5.228 1.802-6.837.055-.276-.61-1.267-1.662-2.261l-.075-.153c5.077.016 10.379.044 10.379.044 1.383 3.363 4.54 12.79 6.922 18.58.629 1.53 1.715 1.819 1.715 1.819-4.317-.055-12.335-.017-12.294-.055 2.16-1.93 1.884-1.93.942-4.74H93.18c-1.385 3.197.43 4.697.663 4.687-1.536.078-6.757 0-6.757 0 2.825-1.986 2.66-2.593 2.66-2.593.776-2.751 1.674-5.763 2.463-8.492h2.772c-.597 1.904-1.19 3.806-1.19 3.806h5.371l-2.992-7.61s-.593 1.902-1.19 3.804h-2.771zm-8.738-4.52c-.11-3.916 0-5.184 0-5.184-1.718 1.38-.85 1.204-5.15.497-12.39-2.037-13.335 9.488-6.592 12.073 5.66 2.17 7.665 2.597 6.812 4.63-.277.665-5.427 3.09-10.744-1.818l.108 6.837c.665-.682 2.494-1.93 2.494-1.93.054 0 5.763 2.506 10.91-.11 7.922-4.024 3.969-10.538-4.485-13.121-7.036-2.15-.388-7.168 6.59-1.82l.057-.054zM62.727 5a.45.45 0 01-.9 0c0-.244.204-.448.45-.448a.452.452 0 01.45.447zm3.12 6.788a.557.557 0 01-.553.553.558.558 0 01-.555-.553.555.555 0 011.108 0zm8.096 11.095a.555.555 0 01-1.108 0c0-.302.232-.552.537-.552.305 0 .57.25.57.552zm-13.015-7.27a.449.449 0 01-.768.316.45.45 0 01-.133-.316.452.452 0 01.768-.316.449.449 0 01.133.316zm4.85 2.55a.45.45 0 01-.9 0c0-.245.203-.447.45-.447.246 0 .45.202.45.447zm-6.303-7.133a.555.555 0 01-1.108 0c0-.302.25-.552.554-.552.304 0 .554.249.554.552zm-7.337 4.445a.451.451 0 01-.9 0 .452.452 0 01.767-.316.45.45 0 01.133.316zm1.312.895a.45.45 0 01-.902 0 .45.45 0 01.45-.429.452.452 0 01.452.43zm1.316.897a.45.45 0 01-.9 0 .45.45 0 01.9 0zm-2.005 1.723a.452.452 0 01-.769.317.45.45 0 01-.133-.317.452.452 0 01.902 0zm-10.456 7.305a.45.45 0 01-.901 0c0-.246.204-.449.45-.449.246 0 .45.203.45.45zm1.938 2.344a.45.45 0 01-.901 0 .452.452 0 01.9 0zm-1.54 37.836a.45.45 0 01-.901 0c0-.245.203-.449.45-.449s.45.204.45.45zm.276 10.438a.555.555 0 01-1.108 0 .556.556 0 01.945-.388.554.554 0 01.163.388zm-5.956 5.347a.45.45 0 01-.9 0 .45.45 0 01.9 0zm-7.13 2.165a.554.554 0 01-1.109 0c0-.302.25-.552.554-.552a.559.559 0 01.555.552zm-1.454-4.822c0 .301-.25.55-.553.55a.557.557 0 01-.554-.55.554.554 0 011.107 0zm-.83 3.067a.451.451 0 01-.901 0c0-.244.204-.448.45-.448.247 0 .45.203.45.448zm-5.333-2.548a.45.45 0 01-.9 0 .45.45 0 01.9 0zm18.625 8.612a.437.437 0 01-.432.45c-.247 0-.468-.203-.468-.45a.451.451 0 01.9 0zm5.61-4.098a.542.542 0 01-.538.552.57.57 0 01-.57-.552.556.556 0 01.944-.39.553.553 0 01.163.39zm.641 5.27c0 .246-.221.45-.467.45a.455.455 0 01-.45-.45c0-.244.203-.447.45-.447.246 0 .467.202.467.447zm23.053-5.032a.451.451 0 01-.767.316.452.452 0 01-.134-.316.451.451 0 01.9 0zm-10.73 3.79a.449.449 0 01-.767.316.45.45 0 01-.133-.316.45.45 0 01.9 0zm28.872 5.448a.45.45 0 01-.901 0c0-.244.204-.447.451-.447.246 0 .45.202.45.447zM90.7 72.918a.555.555 0 01-1.109 0 .556.556 0 01.946-.39.554.554 0 01.163.39zm-4.428 2.997a.451.451 0 01-.9 0 .45.45 0 01.9 0zm4.364.863a.556.556 0 01-1.11 0c0-.301.25-.551.555-.551.305 0 .555.25.555.551zM86.27 82.12a.45.45 0 01-.9 0c0-.246.204-.448.45-.448.246 0 .45.202.45.448zM97.554 69.92a.453.453 0 01-.45.449.454.454 0 01-.45-.449.45.45 0 01.9 0zm1.092 2.722a.54.54 0 01-.536.553c-.304 0-.572-.25-.572-.553a.555.555 0 011.108 0zm7.773 3.24a.555.555 0 01-1.109 0 .554.554 0 011.109 0zm-7.896 5.757a.451.451 0 01-.901 0c0-.246.204-.449.45-.449.246 0 .451.201.451.449zm4.986-4.688a.447.447 0 01-.449.448.453.453 0 01-.45-.448c0-.244.205-.448.45-.448a.45.45 0 01.449.448zm-.918 7.236a.451.451 0 01-.901 0 .451.451 0 01.901 0zm2.113-12.026a.693.693 0 01-1.385 0 .693.693 0 011.385 0z" fill="#fff"/><path d="M104.009 70.06l-.205 1.895-1.887.208 1.903.205.208 1.965.208-1.965 1.869-.242-1.886-.172-.21-1.893zm-4.155 14.09c0 .379-.312.69-.692.69a.697.697 0 01-.693-.69.694.694 0 011.385 0z" fill="#fff"/><path d="M99.166 82.049l-.208 1.896-1.886.206 1.903.207.209 1.963.208-1.963 1.867-.242-1.886-.173-.207-1.894zm-50.96-54.824a.694.694 0 01-1.18.486.691.691 0 01-.205-.486.693.693 0 011.385 0z" fill="#fff"/><path d="M47.513 25.123l-.208 1.895-1.887.207 1.904.205.208 1.966.207-1.966 1.87-.24-1.888-.173-.206-1.894zm26.45-14.575a.694.694 0 01-1.385 0 .693.693 0 011.384 0z" fill="#fff"/><path d="M73.27 8.444l-.207 1.897-1.886.207 1.903.206.207 1.964.208-1.964 1.868-.242-1.887-.172-.207-1.896zM42.65 95.182a.694.694 0 01-1.385 0c0-.378.312-.69.693-.69.38 0 .692.313.692.69z" fill="#fff"/><path d="M41.974 93.077l-.207 1.896-1.887.207 1.904.205.207 1.965.207-1.965 1.87-.24-1.887-.173-.207-1.895z" fill="#fff"/><path d="M133.651 5.3c-8.421 24.888-42.15 44.107-70.545 62.453-17.13 11.073-34.136 23.816-45.844 34.659-3.086 2.86.628-1.069-.554.139 16.339-18.745 35.134-29.91 45.52-36.939 17.566-11.89 27.557-14.886 57.862-42.7" fill="#7267A4"/><path d="M8.03 66.96C5.008 68.435 2.299 69.89 0 71.312l1.398.507a61.407 61.407 0 016.965-3.652l-.332-1.205zm15.965 27.853a302.858 302.858 0 00-8.487 7.659l-.126 1.9c2.624-2.694 5.847-5.601 9.567-8.687" fill="#7267A4"/><path d="M74.411 83.945c23.605 9.675 19.51-14.774 6.927-33.495-7.132-10.606-15.927-19.02-22.3-23.707-7.44-5.474-8.166-5.928-8.166-5.928 16.616 7.858 31.71 27.155 37.939 41.371 2.877 6.565 10.72 32.536-14.262 22.035" fill="#fff"/></g><defs><clipPath id="clip0"><path fill="#fff" d="M0 0h133.656v110H0z"/></clipPath></defs></svg>