<svg width="110" height="110" fill="none" xmlns="http://www.w3.org/2000/svg"><path fill-rule="evenodd" clip-rule="evenodd" d="M71.238 108.197c.578-1.092 1.605-4.623-.32-8.347.578-2.054-.964-2.504-1.605-7.061.642-1.349 1.09-2.954 1.027-4.752-.129-1.605-1.284-2.375-1.926-3.595-1.027-4.109-1.605-8.474-3.146-12.326-.513-1.863-1.797-3.467-2.697-5.2-.898-4.623-1.347-9.566-2.76-13.932.266-.202.504-.44.706-.706-.963-3.916-2.376-9.63-4.43-11.364.513-1.926 1.284-4.173 1.54-5.906.899-1.22 1.926-2.568 3.917-3.467 1.027 2.825 1.477 6.356 2.054 9.18 1.284 2.825 3.082 5.329 3.595 7.897-3.274 1.284-5.521 4.302-5.521 7.832 0 4.558 3.66 8.218 8.153 8.218 3.34 0 6.228-2.12 7.512-5.008v40.96c0 3.66-2.568 6.742-6.099 7.577z" fill="#7267A4"/><path fill-rule="evenodd" clip-rule="evenodd" d="M67.396 108.318c-1.284-3.082-.514-5.65-.257-9.18-.32-1.606-.578-3.21-.835-4.751-1.797-2.761-2.44-5.264-2.889-8.218-3.402-3.017-7.383-5.65-10.079-8.923C48.521 72.687 44.99 68 42.55 62.736c-.834-.063-1.668-.128-2.568-.128-1.54-4.173-5.071-9.245-4.75-12.52.128-2.889 1.027-5.52 2.118-8.474-.963-.193-1.862.129-2.889-.45-1.605-1.027-1.348-2.824-1.412-4.43.706-3.21 2.44-5.906 3.595-8.795 1.156-2.504 2.247-5.007 3.338-7.447 1.541-1.734 2.504-2.953 4.43-3.788 1.67-.193 3.339.064 5.136-.32.77-.258 1.734-.45 2.055-.964.77-1.092.577-2.247.899-3.595-1.028-.578-.9-3.531.256-4.558 0-2.055.835-4.815 2.569-5.521l-14.895-.129a7.754 7.754 0 00-7.768 7.769v91.228a7.75 7.75 0 004.793 7.18c.943.39 1.954.59 2.975.588l26.964-.064zm-29.79-19.003h3.403l2.504 8.025v-8.025h3.081v13.418h-3.467l-2.568-8.025v8.025h-2.953V89.315zm9.502 0h3.98c5.2 0 3.852 6.29 1.926 6.42 2.889-.32 3.274 6.998-1.412 6.998h-4.494V89.315zm3.081 2.183v3.017h.771c1.284 0 1.284-3.017 0-3.017h-.77zm0 5.328v3.724h.771c1.477 0 1.284-3.724 0-3.724h-.77zm7.32-7.51h4.108l2.375 13.417h-3.145l-.258-2.375h-2.182l-.386 2.375h-3.08l2.567-13.418zm1.22 8.666h1.604l-.835-6.677-.77 6.677z" fill="#2A1D69"/><path fill-rule="evenodd" clip-rule="evenodd" d="M60.626 1.952c2.183 2.055 3.532 5.008 1.477 8.603 1.284.834-.963 2.311-1.477 3.467-.641 1.797-2.824 2.825-2.567 3.467 2.824 1.733 5.072 3.466 7.896 5.713 1.477 1.862 2.055 9.309 2.89 14.959 1.22 3.53 2.952 6.548 3.594 10.529a8.643 8.643 0 014.88 4.622V9.399A7.754 7.754 0 0069.55 1.63l-8.924.321z" fill="#7267A4"/></svg>