<svg width="232" height="40" fill="none" xmlns="http://www.w3.org/2000/svg"><g clip-path="url(#clip0)"><path d="M11.264 38.587H.103V.632h19.302L41.55 28.968V.632H52.71v37.955H33.8L11.264 9.767v28.82zM106.11 26.85c0 5.276-.932 7.094-2.478 8.84-2.368 2.597-5.812 3.378-12.45 3.378H72.125c-6.639 0-10.087-.782-12.453-3.379-1.543-1.744-2.477-3.563-2.477-8.839V12.22c0-5.275.934-7.092 2.477-8.84C62.039.78 65.488 0 72.126 0h19.057c6.638 0 10.083.781 12.45 3.38 1.545 1.747 2.478 3.564 2.478 8.84V26.85zm-15.398 2.6c2.55 0 3.448-.149 4.059-.705.573-.52.825-1.188.825-3.418V13.742c0-2.23-.252-2.894-.825-3.416-.61-.558-1.51-.705-4.059-.705h-18.12c-2.549 0-3.447.147-4.056.705-.574.522-.825 1.187-.825 3.416v11.586c0 2.229.25 2.898.825 3.418.61.556 1.507.705 4.056.705h18.12zM122.331.632v37.955h-11.662V.632h11.662zm19.702 0h15.396l-20.778 17.754 23.435 20.2h-16.475l-21.28-19.794L142.033.632zm20.204 0h11.665v37.955h-11.665V.632zm56.131 37.955l-3.451-6.612H192.35l-3.41 6.612h-12.884L196.728.632h14.497l20.672 37.955h-13.529zM196.402 23.73h14.501l-7.252-13.74-7.249 13.74z" fill="#2A1D69"/></g><defs><clipPath id="clip0"><path fill="#fff" d="M0 0h232v39.069H0z"/></clipPath></defs></svg>