<svg width="232" height="69" fill="none" xmlns="http://www.w3.org/2000/svg"><g clip-path="url(#clip0)" fill="#2A1D69"><path d="M101.232 2.045v-.002c-.122-.063-.245-.122-.366-.181a18.697 18.697 0 00-6.38-1.777 18.658 18.658 0 00-11.15 2.431A18.688 18.688 0 0075.859.167a18.655 18.655 0 00-10.449 2.05l-.091.05a.322.322 0 00.197.577.245.245 0 00.05-.006c.008 0 .016-.004.023-.005a18.765 18.765 0 015.186-.228c4.981.47 9.323 2.01 12.37 5.465.158.166.299.155.46-.01 3.831-4.441 9.707-6.196 16.022-5.6.352.035.699.078 1.045.13.12.018.304.049.412.06.209.023.321-.144.321-.324a.3.3 0 00-.172-.282zm-7.321 15.63c-.02-.012-.039-.017-.056-.025a32.392 32.392 0 00-12.413-2.46A32.375 32.375 0 0062.6 21.206a32.418 32.418 0 00-13.288-2.831 32.344 32.344 0 00-18.166 5.547l-.054.038a.475.475 0 00-.186.378c0 .265.216.482.482.482.052 0 .104-.01.153-.029a32.572 32.572 0 019.392-1.38c8.679 0 16.414 2.051 22.239 7.53.014.01.026.024.04.037a.479.479 0 00.685-.058c.002.001.187-.262.281-.39 5.916-8.088 15.667-12.077 26.522-12.077.775 0 1.546.029 2.308.082l.692.052a.482.482 0 00.212-.913zM.913 44.28c.577-1.639 1.404-3.075 2.481-4.298 1.08-1.22 2.404-2.18 3.976-2.878 1.569-.692 3.337-1.046 5.301-1.046 1.99 0 3.765.354 5.323 1.045 1.559.699 2.878 1.66 3.958 2.879 1.08 1.222 1.906 2.659 2.482 4.298.574 1.64.863 3.422.863 5.343 0 1.867-.289 3.617-.863 5.233-.576 1.614-1.402 3.028-2.482 4.225-1.08 1.197-2.399 2.14-3.958 2.818-1.558.684-3.333 1.026-5.322 1.026-1.965 0-3.733-.342-5.302-1.026-1.572-.678-2.896-1.62-3.976-2.818-1.078-1.196-1.904-2.611-2.48-4.225C.338 53.24.05 51.49.05 49.623c0-1.92.289-3.703.863-5.343zm5.161 8.492a8.55 8.55 0 001.206 2.75 6.107 6.107 0 002.157 1.952c.885.5 1.966.744 3.235.744 1.273 0 2.353-.244 3.24-.744a6.13 6.13 0 002.156-1.952 8.54 8.54 0 001.204-2.75c.253-1.03.38-2.088.378-3.149 0-1.13-.126-2.214-.378-3.272a8.71 8.71 0 00-1.204-2.826 6.13 6.13 0 00-2.157-1.981c-.887-.485-1.966-.73-3.24-.73-1.267 0-2.349.245-3.234.73a6.106 6.106 0 00-2.157 1.98 8.73 8.73 0 00-1.206 2.827 14.083 14.083 0 00-.378 3.272c0 1.08.126 2.126.378 3.149zm26.403-9.009v2.37h.07c.628-1.011 1.417-1.735 2.376-2.197.959-.451 2.014-.681 3.166-.681 1.462 0 2.718.278 3.775.83a7.784 7.784 0 012.625 2.191c.693.912 1.21 1.97 1.546 3.184.335 1.21.503 2.48.503 3.8 0 1.24-.168 2.437-.503 3.589-.336 1.15-.846 2.173-1.528 3.058a7.565 7.565 0 01-2.553 2.12c-1.02.53-2.212.788-3.579.788-1.15 0-2.211-.232-3.182-.693a6.044 6.044 0 01-2.395-2.07h-.07v8.805h-5.105V43.763h4.854zm6.636 14.742a4.085 4.085 0 001.365-1.31c.348-.544.592-1.169.74-1.894.143-.718.213-1.45.213-2.189 0-.744-.078-1.473-.232-2.197a5.922 5.922 0 00-.773-1.923 4.423 4.423 0 00-1.386-1.368c-.562-.347-1.252-.52-2.068-.52-.841 0-1.54.173-2.104.52a4.22 4.22 0 00-1.367 1.35 5.656 5.656 0 00-.738 1.904 11.48 11.48 0 00-.217 2.234c0 .739.08 1.47.237 2.189a5.67 5.67 0 00.754 1.894c.348.539.81.975 1.385 1.31.576.332 1.273.499 2.086.499.84 0 1.54-.167 2.105-.499zm14.968-.61c.765.74 1.87 1.11 3.307 1.11 1.03 0 1.917-.253 2.66-.77.744-.516 1.2-1.063 1.37-1.634h4.495c-.72 2.222-1.825 3.822-3.31 4.78-1.487.959-3.287 1.434-5.397 1.434-1.46 0-2.779-.232-3.955-.693a8.323 8.323 0 01-2.985-2c-.812-.86-1.444-1.891-1.887-3.087-.444-1.203-.667-2.52-.667-3.961 0-1.389.23-2.682.685-3.885a9.113 9.113 0 011.943-3.11 9.139 9.139 0 013.002-2.069c1.162-.5 2.452-.754 3.864-.754 1.585 0 2.964.306 4.136.917a8.347 8.347 0 012.9 2.465 10.16 10.16 0 011.633 3.527c.335 1.316.454 2.694.359 4.133H52.819c.075 1.652.493 2.852 1.262 3.596zm5.77-9.786c-.61-.666-1.54-1.006-2.788-1.006-.812 0-1.492.14-2.03.413-.539.276-.971.621-1.296 1.028-.323.411-.548.84-.68 1.29a5.863 5.863 0 00-.236 1.227h8.308c-.243-1.296-.663-2.279-1.277-2.952zm13.276-4.346v2.587h.112c.644-1.077 1.485-1.864 2.513-2.359 1.03-.488 2.09-.736 3.166-.736 1.365 0 2.488.19 3.363.557.875.371 1.564.888 2.067 1.545.504.66.858 1.464 1.063 2.41.204.95.306 1.998.306 3.148V62.35h-5.108V51.853c0-1.538-.242-2.683-.72-3.438-.478-.752-1.332-1.134-2.552-1.134-1.392 0-2.401.413-3.021 1.24-.626.83-.934 2.192-.934 4.085v9.743h-5.109V43.764h4.855zM88.903 44.28c.575-1.639 1.405-3.075 2.48-4.298 1.082-1.22 2.407-2.18 3.977-2.878 1.571-.692 3.34-1.046 5.305-1.046 1.989 0 3.764.354 5.32 1.045 1.561.699 2.883 1.66 3.957 2.879 1.082 1.222 1.907 2.659 2.484 4.298.577 1.64.863 3.422.863 5.343 0 1.867-.286 3.617-.863 5.233-.577 1.614-1.403 3.028-2.484 4.225-1.074 1.197-2.396 2.14-3.957 2.818-1.556.684-3.331 1.026-5.32 1.026-1.965 0-3.734-.342-5.305-1.026-1.57-.678-2.895-1.62-3.977-2.818-1.075-1.196-1.904-2.611-2.48-4.225-.573-1.616-.861-3.366-.861-5.233 0-1.92.287-3.703.861-5.343zm5.16 8.492a8.578 8.578 0 001.206 2.75 6.086 6.086 0 002.16 1.952c.884.5 1.963.744 3.235.744 1.272 0 2.349-.244 3.239-.744a6.12 6.12 0 002.154-1.952 8.485 8.485 0 001.205-2.75 13.05 13.05 0 00.38-3.149c.003-1.102-.125-2.2-.38-3.272-.251-1.056-.649-1.994-1.205-2.826a6.122 6.122 0 00-2.154-1.981c-.889-.485-1.966-.73-3.239-.73-1.272 0-2.351.245-3.234.73a6.095 6.095 0 00-2.161 1.98 8.74 8.74 0 00-1.206 2.827 14.148 14.148 0 00-.374 3.272c0 1.08.124 2.126.374 3.149zm40.535-11.762c.296-.326.798-.488 1.494-.488.645 0 1.269.035 1.868.102v-3.802c-.431-.03-.874-.06-1.33-.096a18.626 18.626 0 00-1.368-.053c-2.084 0-3.644.534-4.675 1.585-1.032 1.054-1.542 2.405-1.542 4.062v1.444h-6.227v-1.12c0-.762.15-1.306.453-1.632.297-.326.796-.489 1.487-.489.654 0 1.274.035 1.875.102v-3.803c-.431-.03-.879-.06-1.332-.096a18.676 18.676 0 00-1.367-.053c-2.086 0-3.646.534-4.677 1.585-1.032 1.054-1.548 2.405-1.548 4.062v1.444h-3.054v3.412h3.054v15.175h5.108V47.176h6.227v15.175h5.104V47.176h3.524v-3.412h-3.524v-1.12c0-.762.148-1.307.45-1.633zm10.557 2.753V62.35h-5.111V43.763h5.111zm11.489 3.34c-.814 0-1.5.185-2.053.56-.552.37-1.012.86-1.346 1.435a6.025 6.025 0 00-.733 1.943 10.15 10.15 0 00-.221 2.107c0 .669.071 1.352.221 2.05.127.663.361 1.301.694 1.889a4.04 4.04 0 001.312 1.38c.551.356 1.224.538 2.017.538 1.225 0 2.164-.335 2.822-1.022.662-.684 1.077-1.6 1.24-2.752h4.927c-.336 2.47-1.292 4.353-2.876 5.646-1.585 1.296-3.609 1.939-6.078 1.939-1.391 0-2.667-.233-3.833-.694-1.161-.469-2.148-1.125-2.965-1.965-.814-.834-1.448-1.842-1.907-3-.449-1.166-.676-2.438-.676-3.832 0-1.434.202-2.774.624-4.006.421-1.237 1.039-2.304 1.851-3.205a8.554 8.554 0 012.982-2.103c1.176-.501 2.523-.755 4.033-.755 1.1 0 2.159.145 3.18.432a8.587 8.587 0 012.737 1.316 7.054 7.054 0 011.954 2.19c.507.875.798 1.912.868 3.115h-5c-.335-2.138-1.595-3.206-3.774-3.206zm16.801 10.791c.773.742 1.877 1.11 3.312 1.11 1.033 0 1.916-.252 2.664-.768.739-.517 1.199-1.064 1.365-1.635h4.495c-.714 2.222-1.819 3.822-3.305 4.78-1.489.959-3.286 1.435-5.394 1.435-1.466 0-2.785-.233-3.959-.694a8.338 8.338 0 01-2.989-2c-.808-.86-1.437-1.891-1.886-3.087-.443-1.203-.664-2.52-.664-3.961 0-1.389.232-2.682.684-3.885.46-1.195 1.103-2.234 1.946-3.11a9.1 9.1 0 013-2.069c1.164-.5 2.454-.754 3.868-.754 1.578 0 2.959.306 4.133.917 1.179.615 2.142 1.434 2.894 2.465a10.118 10.118 0 011.633 3.527c.34 1.316.462 2.694.364 4.134H172.19c.071 1.651.494 2.851 1.255 3.595zm5.774-9.785c-.606-.666-1.534-1.006-2.783-1.006-.812 0-1.495.14-2.031.413-.537.276-.975.621-1.297 1.028-.323.411-.554.84-.686 1.29a5.788 5.788 0 00-.232 1.227h8.308c-.238-1.296-.663-2.279-1.279-2.952zm12.152 4.522a6.498 6.498 0 011.281-2.29 6.026 6.026 0 012.11-1.537c.833-.377 1.798-.562 2.881-.562 1.104 0 2.068.185 2.89.562a6.04 6.04 0 012.097 1.538c.572.644.994 1.407 1.28 2.289.284.88.43 1.827.43 2.84a9.057 9.057 0 01-.43 2.826 6.364 6.364 0 01-1.28 2.283 5.885 5.885 0 01-2.097 1.522c-.822.362-1.785.544-2.89.544-1.084 0-2.048-.182-2.881-.543a5.86 5.86 0 01-2.11-1.523 6.555 6.555 0 01-1.281-2.283 9.119 9.119 0 01-.427-2.825c0-1.014.144-1.961.427-2.841zm2.311 5.068c.223.648.529 1.19.919 1.628a4.058 4.058 0 003.041 1.351 4.068 4.068 0 003.038-1.35c.394-.44.694-.98.921-1.63.221-.643.335-1.393.335-2.227 0-.832-.114-1.58-.335-2.225-.227-.648-.527-1.195-.921-1.64a3.953 3.953 0 00-1.373-1.013 4.056 4.056 0 00-1.665-.351c-.585 0-1.14.119-1.668.35-.525.231-.982.57-1.373 1.014-.39.444-.696.992-.919 1.64-.221.645-.337 1.393-.337 2.225 0 .834.115 1.585.337 2.228zm14.031-9.135v2.91h.052c.546-1.124 1.227-1.95 2.024-2.481.799-.54 1.812-.785 3.04-.75v2.404c-.903 0-1.676.123-2.316.374-.642.247-1.159.615-1.551 1.088-.394.479-.675 1.066-.852 1.744-.177.692-.265 1.473-.265 2.363v6.134h-2.267V48.564h2.135zm16.427 17.684c-1.04 1.117-2.651 1.681-4.852 1.681a9.424 9.424 0 01-1.963-.216 6.104 6.104 0 01-1.818-.693 4.143 4.143 0 01-1.343-1.254c-.359-.519-.553-1.144-.584-1.894h2.26c.015.407.15.757.39 1.038.235.288.535.517.882.695.342.184.717.311 1.131.387.407.079.802.117 1.175.117.74 0 1.373-.124 1.896-.379a3.679 3.679 0 001.277-1.072c.335-.45.579-1 .733-1.636a9.301 9.301 0 00.224-2.112v-.905h-.053c-.395.856-.982 1.483-1.771 1.883-.781.396-1.645.6-2.521.597-1.03 0-1.925-.187-2.695-.562a5.707 5.707 0 01-1.922-1.503c-.512-.63-.9-1.37-1.153-2.215a8.933 8.933 0 01-.393-2.677c0-.82.11-1.66.326-2.523a6.845 6.845 0 011.066-2.347c.498-.7 1.159-1.279 1.972-1.727.818-.461 1.821-.688 3.015-.688.869 0 1.67.19 2.398.574.732.385 1.296.956 1.708 1.72h.024v-1.972h2.135V61.18c0 2.253-.513 3.949-1.544 5.068zm-2.895-6.202a3.728 3.728 0 001.265-1.23 5.526 5.526 0 00.707-1.718c.151-.64.223-1.278.223-1.92 0-.603-.069-1.198-.209-1.789a5.075 5.075 0 00-.682-1.582 3.514 3.514 0 00-1.213-1.136c-.497-.281-1.107-.43-1.81-.43-.73 0-1.353.144-1.873.417-.5.266-.933.644-1.263 1.105-.327.464-.57 1-.724 1.603a7.927 7.927 0 00-.226 1.89 9.67 9.67 0 00.188 1.867c.127.625.34 1.186.641 1.692.294.502.705.924 1.199 1.23.502.314 1.12.468 1.868.468.752 0 1.384-.154 1.909-.467zm-75.911-20.91a2.735 2.735 0 01-2.734 2.73 2.731 2.731 0 010-5.462 2.735 2.735 0 012.734 2.733zm44.777 21.441a1.993 1.993 0 11-3.986-.002 1.993 1.993 0 013.986.002zM227.202 45.864v2.74h-.521v-2.74h-.991v-.422h2.503v.422h-.991zm4.226 2.74v-2.64h-.015l-1.037 2.64h-.329l-1.035-2.64h-.016v2.64h-.523V45.44h.807l.944 2.403.929-2.403h.797v3.163h-.522z"/></g><defs><clipPath id="clip0"><path fill="#fff" d="M0 0h232v68.858H0z"/></clipPath></defs></svg>