<svg width="149" height="148" fill="none" xmlns="http://www.w3.org/2000/svg"><path d="M33.318 122.312c0 5.608-4.346 9.673-9.778 9.673-5.536 0-9.778-4.116-9.778-9.467 0-5.608 4.346-9.673 9.778-9.673 5.536 0 9.778 4.116 9.778 9.467zm-3.104.103c0-5.093-2.483-8.644-6.674-8.644-4.553 0-6.674 4.271-6.674 8.644 0 5.094 2.483 8.644 6.674 8.644 4.553-.052 6.674-4.271 6.674-8.644zm62.756-.103c0 5.608-4.346 9.673-9.778 9.673-5.536 0-9.778-4.116-9.778-9.467 0-5.608 4.345-9.673 9.778-9.673 5.535 0 9.778 4.116 9.778 9.467zm-3.105.103c0-5.093-2.483-8.644-6.673-8.644-4.553 0-6.674 4.271-6.674 8.644 0 5.094 2.483 8.644 6.674 8.644 4.552-.052 6.674-4.271 6.674-8.644zm10.658.103h2.328c3.518 0 4.294-2.212 4.294-4.322 0-1.595-.724-3.087-2.379-3.807-.88-.36-1.708-.36-2.846-.36h-1.397v8.489zm4.294 2.933c-1.086-1.544-1.5-2.11-2.845-2.11h-1.449v6.277c0 .515.207.772.776.875l2.121.463v.669h-8.33v-.669l1.915-.463c.57-.154.776-.36.776-.875v-14.509c0-.514-.207-.72-.776-.874l-1.914-.464v-.668h8.122c1.708 0 2.898.154 3.881.514 2.017.772 3.156 2.676 3.156 4.476 0 2.264-1.708 4.168-4.553 4.837v.103c.569.257.879.617 2.897 3.241l2.535 3.344c.362.515.828.823 1.397.926l1.862.412v.669h-4.449c-.517 0-.776-.154-1.242-.772l-3.88-5.402zm-36.474-5.968h.776v6.174h-.776l-.465-1.853c-.156-.668-.57-.926-1.19-.926h-4.501v6.792c0 .514.207.771.776.874l2.12.463v.669h-8.329v-.669l1.915-.463c.569-.154.776-.36.776-.874v-14.509c0-.515-.207-.721-.776-.875l-1.915-.463v-.669h14.073v4.631h-.776l-.88-2.779c-.207-.72-.517-.977-1.138-.977h-5.846v7.975h4.5c.622 0 .984-.258 1.19-.927l.466-1.594zm47.546 12.142v-.669l1.914-.463c.569-.154.776-.36.776-.875v-14.509c0-.514-.207-.72-.776-.874l-1.914-.464v-.668h8.743c2.38 0 4.087.308 5.484.926 3.518 1.595 5.122 5.042 5.122 8.438 0 3.292-1.242 6.38-4.397 8.026-1.449.772-3.467 1.132-6.105 1.132h-8.847zm5.432-17.596v15.949c0 .669.155.824.828.824h2.276c2.173 0 3.777-.309 4.915-1.132 1.914-1.389 2.794-3.911 2.794-7.1 0-3.139-.88-6.226-3.466-7.718-1.087-.617-2.484-.823-4.657-.823h-2.69zm-80.708 16.927v.669h-6.57v-.669l1.655-.412c.62-.154 1.035-.36 1.448-.823l5.691-7.1-5.69-7.512c-.363-.514-.828-.772-1.397-.926l-1.553-.412v-.668h8.175v.668l-1.76.361c-.62.103-.465.36-.154.771l4.19 5.969h.104l4.294-5.969c.31-.411.414-.566-.155-.72l-1.656-.412v-.668h6.57v.668l-1.655.412c-.62.154-1.035.36-1.449.823l-5.38 6.74 6.001 7.872c.362.515.828.772 1.397.926l1.552.412v.669h-8.226v-.669l1.76-.36c.62-.103.516-.309.206-.72l-4.553-6.38h-.103l-4.553 6.38c-.31.411-.414.565.155.72l1.656.36zm-19.608-26.549c-.518.515-1.294.875-2.38.875-.931 0-1.81-.309-2.38-.875-.828-.823-.776-1.8-.776-2.881v-5.145h1.035v5.505c0 .721 0 1.39.517 1.904.362.36.931.566 1.604.566.672 0 1.19-.206 1.5-.566.621-.617.57-1.235.57-2.83v-4.63h1.034v4.373c.052 1.646.155 2.881-.724 3.704zm9.364.721l-4.242-7.203.051 7.203h-.983v-8.747h1.087l4.242 7.255V96.33h.983v8.746H30.37v.052zm4.76 0v-8.747h1.086v8.747H35.13zm7.657 0h-1.19l-3.053-8.747h1.087l2.587 7.718 2.638-7.718h1.035l-3.104 8.747zm5.535 0v-8.747h4.812v.875h-3.777v2.881h3.518v.875h-3.518v3.241h3.88v.926l-4.915-.051zm11.59-7.46c-.518-.515-1.139-.464-1.863-.464h-.983v3.293h.362c.88 0 1.862.052 2.432-.566.31-.308.465-.72.465-1.132 0-.514-.207-.926-.414-1.132zm.982 7.46l-1.034-2.264c-.621-1.389-.932-1.544-2.173-1.544h-.621v3.808H56.03v-8.747h1.914c1.19 0 2.07 0 2.742.669.466.463.673 1.029.673 1.75 0 .617-.155 1.131-.57 1.491-.31.361-.827.618-1.396.669.31 0 .57.206.724.36.259.258.414.618.673 1.184l1.19 2.624h-1.087zm11.382 0v-8.747h1.087v8.747h-1.087zm7.088-7.924v7.872h-1.086v-7.872h-2.639v-.874h6.312v.874h-2.587zm7.709 4.425v3.447h-1.035v-3.447l-2.794-5.3h1.19l2.173 4.117 2.121-4.116h1.138l-2.793 5.299zm12.675-4.579c-1.707 0-2.845 1.44-2.845 3.653 0 2.161 1.241 3.653 2.897 3.653 1.862 0 2.845-1.544 2.845-3.756.052-2.11-1.19-3.55-2.897-3.55zm0 8.232c-2.276 0-3.932-1.852-3.932-4.528 0-2.726 1.656-4.579 4.036-4.579 2.328 0 3.932 1.853 3.932 4.528s-1.604 4.579-4.036 4.579zm8.019-8.078v2.882h3.415v.874h-3.415v4.168h-1.034v-8.747h4.707v.875h-3.673v-.052zm-43.665 1.287c0-1.338 1.086-2.316 2.69-2.316 1.604 0 2.38.824 2.484.927l-.518.617c-.207-.154-.88-.669-1.862-.669-1.138 0-1.76.566-1.76 1.39 0 .36.156.668.415.874.31.257.724.463 1.241.669.57.257 1.397.566 1.966 1.132.362.411.673.874.673 1.595 0 1.44-1.035 2.572-2.846 2.572-1.552 0-2.535-.875-2.638-.926l.465-.72c.26.205 1.242.771 2.122.771 1.345 0 1.81-.72 1.81-1.595 0-.411-.207-.72-.465-.977-.414-.412-1.035-.669-1.656-.926-.569-.257-1.138-.566-1.552-.978-.31-.308-.569-.772-.569-1.44zm52.098-63.439v13.12h-9.519l-.104.257c-.155.412-.465.772-1.5.772s-1.345-.36-1.5-.772l-.104-.257h-9.52v-13.12h-.879v.412l-.828-.258c-.103-.308-.413-.566-.724-.566a.793.793 0 00-.776.772c0 .412.362.772.776.772a.666.666 0 00.517-.206l1.087.309v1.029l-.828-.155c-.103-.257-.414-.463-.724-.463a.793.793 0 00-.776.772c0 .412.362.772.776.772a.833.833 0 00.569-.257l.983.154v1.08l-.828-.051c-.155-.206-.362-.36-.672-.36a.793.793 0 00-.776.772c0 .411.362.771.776.771.258 0 .465-.154.62-.308l.88.051v1.184l-.88.051a.739.739 0 00-.62-.309.793.793 0 00-.776.772c0 .412.362.772.776.772.258 0 .517-.155.672-.36l.828-.052v1.08l-.931.155a.833.833 0 00-.57-.257.794.794 0 00-.775.771c0 .412.362.772.776.772.31 0 .62-.206.724-.463l.776-.154v1.08l-1.035.309c-.155-.103-.31-.206-.517-.206a.793.793 0 00-.776.772c0 .412.362.772.776.772.362 0 .672-.258.724-.566l.776-.258v1.03l-1.138.514a.59.59 0 00-.414-.154.794.794 0 00-.776.772c0 .411.362.771.776.771.362 0 .724-.257.776-.669l.828-.36v.926h9.882c.413.72 1.086 1.08 2.121 1.08 1.034 0 1.759-.36 2.121-1.08h9.881V35.052h-.931zM98.557 32.068c2 0 3.622-.3 3.622-.67 0-.369-1.622-.668-3.622-.668-2 0-3.621.3-3.621.669 0 .37 1.621.669 3.621.669zM103.524 26.408l-2.069 1.44v.155l.517.206c.104.051.104.103.052.154l-1.294 1.08h-.103l-.931-1.337c-.052-.103-.052-.154.051-.206l.621-.103v-.154l-1.604-2.264h-.258l-1.604 2.264v.154l.62.103c.104 0 .156.103.052.206l-.93 1.338h-.104l-1.242-1.08c-.052-.052-.052-.104.052-.155l.517-.206v-.154l-2.173-1.44-.155.05 1.293 3.86c.673-.31 2.122-.515 3.88-.515 1.76 0 3.208.206 3.881.514l1.293-3.858-.362-.052zM105.025 57.999c2 0 3.621-.3 3.621-.669 0-.37-1.621-.669-3.621-.669s-3.622.3-3.622.669c0 .37 1.622.669 3.622.669zM109.991 52.39l-2.07 1.441v.155l.518.206c.103.051.103.102.052.154l-1.294 1.08h-.103l-.932-1.337c-.051-.103-.051-.155.052-.206l.621-.103v-.154l-1.604-2.264h-.258l-1.604 2.264v.154l.621.103c.103 0 .155.103.051.206l-.931 1.337h-.103l-1.242-1.08c-.052-.051-.052-.103.052-.154l.517-.206v-.155l-2.173-1.44-.155.051 1.293 3.86c.673-.31 2.121-.515 3.88-.515 1.76 0 3.208.205 3.881.514l1.293-3.859-.362-.051zM111.492 32.068c2 0 3.621-.3 3.621-.67 0-.369-1.621-.668-3.621-.668s-3.622.3-3.622.669c0 .37 1.622.669 3.622.669z" fill="#2A1D69"/><path d="M116.458 26.408l-2.069 1.44v.155l.517.206c.103.051.103.103.052.154l-1.294 1.08h-.103l-.932-1.337c-.051-.103-.051-.154.052-.206l.621-.103v-.154l-1.604-2.264h-.258l-1.604 2.264v.154l.621.103c.103 0 .155.103.051.206l-.931 1.338h-.103l-1.242-1.132c-.052-.052-.052-.103.052-.155l.517-.205v-.155l-2.173-1.44-.155.051 1.293 3.859c.673-.309 2.121-.514 3.88-.514 1.76 0 3.208.205 3.881.514l1.293-3.859h-.362zM104.61 37.007c0-1.08-.362-2.007-1.19-2.47-.517-.308-1.19-.411-2.069-.411h-6.157v12.4h6.726c1.552 0 2.483.36 2.535 1.749h.155V37.007zm-4.552.772c.155 0 .207-.052.207-.155 0-.102.051-.205.051-.463l.052-.566c0-.36 0-.36-.207-.411v-.103h.621l.465 1.08.414-1.08h.673v.103c-.207 0-.207.051-.207.309l.052.926c0 .308 0 .308.207.308v.103h-.88v-.103c.207 0 .207-.051.207-.308v-.978l-.517 1.39h-.155l-.518-1.287v1.08c0 .103.052.103.259.155v.103h-.673l-.051-.103zm1.603 2.727c-.258-.103-.517-.258-.517-.566 0-.309.207-.566.673-.566.103 0 .155 0 .258.051.052 0 .104.052.155.052 0 .103.052.257.052.411h-.103c-.052-.154-.155-.36-.362-.36-.156 0-.259.103-.259.257 0 .155.103.206.259.309l.051.051c.259.103.466.258.466.566 0 .36-.259.566-.673.566-.103 0-.207 0-.31-.051-.104-.051-.155-.051-.155-.051 0-.103-.052-.258-.104-.464l.104-.051c.051.154.207.463.465.463.156 0 .259-.103.259-.257 0-.206-.103-.309-.259-.36zm-1.81-.875c.051.154.258.669.362.977.103-.257.258-.771.31-.874.052-.154.052-.206-.103-.206h-.104v-.103h.673v.103c-.155 0-.207.052-.311.257 0 .052-.362.875-.569 1.39h-.207c-.207-.515-.465-1.184-.569-1.441-.103-.257-.155-.257-.258-.257v-.103h.88v.103h-.104c-.052.051-.052.103 0 .154zm-.828-3.55c.517 0 .88.36.88.926 0 .566-.415.926-.932.926-.569 0-.931-.411-.931-.926.052-.412.362-.926.983-.926zm-3.053 1.8v-.102c.207 0 .207-.052.207-.309v-.926c0-.309 0-.309-.207-.309v-.103h.828c.362 0 .621.052.828.258.155.102.259.308.259.566 0 .668-.518.977-1.139.977h-.776v-.051zm1.863 4.889c-.207 0-.207.05-.207.308v.926c0 .309 0 .309.207.309v.103h-.88v-.103c.207 0 .207-.052.207-.309v-.926c0-.309 0-.309-.207-.309v-.102h.88v.102zm0-1.596h-.673v-.102c.104 0 .207-.052.207-.155v-1.029c0-.206 0-.257-.052-.308-.051-.052-.103-.052-.206-.103v-.103h.62l.932 1.132v-.875c0-.103-.104-.154-.259-.154v-.103h.724v.103c-.155 0-.207.051-.207.154v1.544h-.258l-1.035-1.287v1.03c0 .102.103.154.259.154l-.052.102zm1.5 3.293h-1.345v-.103c.207 0 .207-.051.207-.308v-.926c0-.31 0-.31-.207-.31v-.102h.88v.103c-.207 0-.207.051-.207.309v.926c0 .154 0 .206.051.257h.207c.104 0 .207 0 .259-.103.052-.051.103-.103.155-.257h.104c0 .154-.052.411-.104.514zm1.552 0H99.54v-.103c.207 0 .207-.051.207-.308v-.926c0-.31 0-.31-.207-.31v-.102h.88v.103c-.207 0-.207.051-.207.309v.926c0 .154 0 .206.052.257h.206c.104 0 .207 0 .259-.103.052-.051.104-.103.155-.257h.104c0 .154-.104.411-.104.514zm1.708-1.697c-.156 0-.207.05-.311.257 0 .051-.362.874-.569 1.389h-.207c-.207-.515-.465-1.183-.569-1.44-.103-.258-.155-.258-.259-.258v-.103h.88v.103h-.104c-.103 0-.103.051-.051.154.051.155.258.67.362.978.103-.257.259-.772.31-.875.052-.154.052-.206-.103-.206h-.104v-.102h.673l.052.102zm.879-6.535c-.207 0-.207.052-.207.309v.926c0 .309 0 .309.207.309v.103h-.879v-.103c.207 0 .207-.052.207-.309v-.926c0-.309 0-.309-.207-.309v-.103h.879v.103z" fill="#2A1D69"/><path d="M96.799 36.287h-.104v1.183c0 .257.052.309.207.309.259 0 .466-.258.466-.72-.052-.618-.31-.772-.57-.772zm2.276 1.492c.259 0 .362-.206.362-.72 0-.566-.207-.875-.414-.875-.206 0-.362.257-.362.72-.052.515.104.875.414.875zm13.089 5.453l-.155.515h.362l-.207-.514zm.673-6.534l-.207.515h.362l-.155-.515zm-1.552 3.55c0 .515.207.875.465.875.259 0 .363-.206.363-.72 0-.566-.207-.875-.414-.875-.259 0-.414.206-.414.72z" fill="#2A1D69"/><path d="M108.698 34.177c-.828 0-1.552.103-2.07.412-.827.463-1.19 1.338-1.19 2.47v11.267h.156c.103-1.389.983-1.75 2.535-1.75h6.777V34.178h-6.208zm1.448 1.955h.621l.932 1.132v-.874c0-.103-.104-.155-.259-.155v-.103h.724v.103c-.155 0-.207.052-.207.155v1.543h-.258l-1.035-1.286v1.029c0 .103.103.154.258.154v.103h-.724v-.103c.104 0 .207-.051.207-.154v-1.03c0-.205 0-.256-.052-.308-.051-.051-.103-.051-.207-.103v-.103zm2.484 4.116c0 .566-.414.927-.931.927-.57 0-.932-.412-.932-.927 0-.463.311-.977.932-.977.517.103.931.463.931.977zm-2.07.824v.102h-.879v-.102c.207 0 .207-.052.207-.31v-.925c0-.309 0-.309-.207-.309v-.103h.879v.103c-.207 0-.207.052-.207.309v.926c0 .257 0 .309.207.309zm-1.448-3.293c.207 0 .207-.052.207-.309v-.926c0-.309 0-.309-.207-.309v-.103h.879v.103c-.207 0-.207.052-.207.309v.926c0 .309 0 .309.207.309v.103h-.879v-.103zm.051 3.293v.102h-.983v-.102c.207 0 .259-.052.259-.31V39.58h-.052c-.207 0-.258.051-.31.102-.052.052-.052.103-.103.258h-.104c0-.206.052-.412.052-.566h.103c.052.051.052.051.155.051h1.087c.052 0 .103 0 .155-.051h.104c0 .103 0 .36.051.566h-.103c-.052-.155-.052-.258-.104-.258-.051-.051-.155-.051-.258-.051h-.052v1.183c-.155.206-.155.258.103.258zm-1.862-3.19h-.673v-.103c.156 0 .207-.052.207-.155 0-.102.052-.205.052-.463l.052-.566c0-.36 0-.36-.207-.411v-.103h.621l.465 1.08.414-1.08h.673v.103c-.207 0-.207.051-.207.309l.052.926c0 .308 0 .308.207.308v.103h-.88v-.103c.207 0 .207-.051.207-.308v-.978l-.517 1.39h-.156l-.517-1.287v1.08c0 .103.052.103.259.155l-.052.103zm2.432 6.585h-.88v-.102c.207 0 .207-.052.207-.31v-.977l-.517 1.39h-.156l-.517-1.287v1.08c0 .103.052.103.259.155v.103h-.673v-.103c.155 0 .207-.051.207-.154 0-.103.052-.206.052-.464l.052-.565c0-.36 0-.36-.207-.412v-.103h.62l.466 1.08.414-1.08h.673v.103c-.207 0-.207.051-.207.309l.051.926c0 .309 0 .309.207.309l-.051.102zm1.552 0h-1.397v-.102c.207 0 .258-.052.258-.31v-.925c0-.309 0-.309-.207-.309v-.103h1.294c0 .051 0 .257.052.463h-.104c-.052-.154-.052-.206-.103-.257-.052-.052-.156-.052-.259-.052h-.103c-.104 0-.104 0-.104.103v.515h.155c.259 0 .259 0 .259-.206h.103v.669h-.103c-.052-.257-.052-.257-.259-.257h-.155v.463c0 .154 0 .206.052.257h.207c.103 0 .207 0 .31-.103.052-.051.104-.154.155-.257h.104c-.052.051-.104.309-.155.411zm1.914 0h-.88v-.102h.104c.103 0 .103-.052.052-.155l-.104-.257h-.466l-.103.257c-.052.103-.052.154.103.154h.104v.103h-.621v-.102c.155 0 .207-.052.259-.258l.569-1.389.207-.051.207.514c.103.309.258.669.362.926.103.258.155.258.259.258l-.052.102zm.672-6.585h-.879v-.103h.103c.104 0 .104-.052.052-.155l-.103-.257h-.466l-.103.257c-.052.103-.052.155.103.155h.103v.103h-.62v-.103c.155 0 .207-.052.258-.258l.569-1.389.207-.051.207.514c.104.31.259.67.362.927.104.257.156.257.259.257l-.052.103zM101.868 67.157c.4 0 .724-.322.724-.72a.722.722 0 00-.724-.72c-.4 0-.724.322-.724.72 0 .398.324.72.724.72zM109.111 68.34c.4 0 .724-.322.724-.72a.722.722 0 00-.724-.72c-.4 0-.724.322-.724.72 0 .398.324.72.724.72zM105.024 16.684c.4 0 .724-.323.724-.72a.722.722 0 00-.724-.72c-.4 0-.724.322-.724.72 0 .397.324.72.724.72zM122.097 23.372c.4 0 .725-.322.725-.72a.723.723 0 00-.725-.72c-.4 0-.724.322-.724.72 0 .398.324.72.724.72zM86.814 53.368c.258.412.413.823.413 1.235 0 .515-.155.926-1.086 1.544l-2.587 1.852-.466-.669s2.639-1.904 2.69-1.904c.466-.308.673-.566.673-.926 0-.206-.103-.463-.258-.72-.259-.36-.57-.515-.88-.515-.259 0-.569.206-1.086.566l-2.432 1.647-.466-.67 2.329-1.543c.62-.463 1.138-.771 1.655-.771.673-.052 1.19.411 1.5.874zm-8.33-5.042l4.915-1.698.259.72-2.846 3.448 3.57-1.39.258.72-4.863 1.853-.258-.72 2.845-3.447-3.621 1.286-.26-.772zm-.724-3.91l5.173-.772.104.823-5.174.772-.103-.823zm-.156-6.226v-.874l5.174 2.11-.052.874-5.277 1.595v-.875l4.294-1.183-4.139-1.647zm4.708-11.627c-.724 0-1.086.411-1.552 1.286l-.62 1.08 4.604 2.47.414-.72-1.914-1.03.103-.205c.31-.566.414-.67 1.242-.618l1.5.155.414-.772-1.707-.154c-.362-.052-.621-.052-.828 0-.052 0-.155.051-.259.102 0-.102.052-.205.052-.257 0-.154 0-.308-.052-.411a1.153 1.153 0 00-.672-.72c-.207-.104-.466-.206-.725-.206zm-.93 1.595c.31-.567.516-.772.827-.772.103 0 .259.051.414.103a.88.88 0 01.414.463c0 .051.051.154.051.205 0 .31-.155.618-.362.927l-.103.205-1.449-.771.207-.36zm6.673-8.901l.673-.515 3.156 4.116-.673.515-3.156-4.116zm2.846-2.059l3.362-1.749.31.618-1.292.668 2.069 3.962-.724.36-2.07-3.961-1.345.669-.31-.567zm8.433-3.292l.879-.258-.724 3.5.569 1.954-.776.206-.57-1.955-2.483-2.573.88-.257 1.759 1.852.466-2.47zm15.934 7.1l2.639-4.476 2.483 1.44-.362.618-1.759-1.03-.724 1.236 1.655.977-.362.617-1.655-.977-1.19 2.006-.725-.411zm13.452 11.576l1.914-2.264.31.875-1.396 1.595 2.121.463.258.823-2.897-.668-2.069 2.418-.311-.875 1.552-1.8-2.328-.515-.258-.875 3.104.823zm-1.501 5.094l5.226-.412.258 2.881-.724.052-.155-2.058-1.449.103.156 1.955-.673.051-.155-1.955-2.38.206-.104-.823zm2.277 4.63c-.621 0-1.138.155-1.604.464-.776.565-.931 1.389-.931 1.852 0 1.749 1.655 2.47 2.897 2.47.621 0 1.138-.155 1.604-.464.879-.617.931-1.595.931-1.903 0-1.544-1.397-2.419-2.897-2.419zm.414 3.962c-1.035 0-2.225-.566-2.225-1.595 0-.36.155-.875.569-1.183a2.17 2.17 0 011.19-.36c.517 0 1.449.154 1.966.823.155.206.259.514.259.772 0 .411-.155.874-.569 1.183-.311.257-.725.36-1.19.36zm-3.415-21.249c-.517 0-1.086.154-1.655.515-.983.617-1.346 1.543-1.346 2.212 0 .412.104.875.363 1.235a2.293 2.293 0 001.966 1.08c.517 0 1.086-.154 1.655-.514.621-.412 1.345-1.184 1.345-2.213 0-.411-.103-.823-.362-1.235a2.294 2.294 0 00-1.966-1.08zm-.828 4.219c-.465 0-.879-.206-1.19-.669a1.283 1.283 0 01-.207-.72c0-.566.363-1.184 1.035-1.647.466-.308.88-.411 1.294-.411.517 0 .931.206 1.19.669.155.257.258.514.258.771 0 .566-.362 1.132-1.035 1.544-.465.309-.931.463-1.345.463zm-13.451-14.92c-1.087 0-2.018.72-2.432 2.006a2.558 2.558 0 00-.155.823c0 .515.104.926.311 1.338.465.875 1.345 1.183 2.017 1.183.362 0 .725-.103 1.087-.257.879-.463 1.448-1.595 1.448-2.676 0-.463-.103-.874-.31-1.286-.362-.72-1.138-1.132-1.966-1.132zm-.259 4.63a1.53 1.53 0 01-1.241-.72c-.156-.258-.207-.618-.207-.927 0-.926.62-2.212 1.759-2.212.62 0 1.448.463 1.448 1.646 0 .67-.517 2.213-1.759 2.213zm-28.662 14.2l.725.206-.776 2.83-5.07-1.39.879-2.88.673.205-.621 2.058 1.397.36.517-1.903.673.206-.518 1.903 1.552.412.57-2.007zm1.346-10.856c.724-.823 1.448-.772 1.448-.772l.104.67s-.57 0-1.035.514c-.207.206-.31.463-.31.669 0 .154.051.308.206.411.363.309.983-.051 1.346-.206.31-.102.724-.308 1.138-.308.31 0 .62.103.931.36.362.309.517.72.517 1.08 0 .463-.155.823-.517 1.235-.672.72-1.552.823-1.552.823l-.155-.72c.517-.103.931-.309 1.19-.617a.92.92 0 00.258-.67c0-.205-.103-.36-.258-.514a.838.838 0 00-.466-.154c-.31 0-.724.206-1.086.309-.621.257-1.294.463-1.915-.052a1.264 1.264 0 01-.465-.977c.103-.258.258-.72.62-1.08zm41.182 26.754l1.966.875-.104.206c-.259.617-.362.72-1.19.72h-1.5l-.362.823h1.707c.362 0 .621 0 .828-.102.051-.052.155-.052.207-.155v.155c0 .205.051.36.103.566.259.565.88.823 1.345.823.828 0 1.138-.515 1.552-1.39 0-.05.466-1.131.466-1.131l-4.76-2.11-.258.72zm3.104 3.036a.87.87 0 01-.776-.514c-.052-.103-.052-.206-.052-.31 0-.308.155-.565.259-.874l.103-.206 1.5.67-.155.41c-.31.67-.517.824-.879.824zm-5.846 1.852c-.518.67-.932 1.287-.932 2.058 0 .67.311 1.39 1.087 2.007.517.411 1.086.617 1.655.617.725 0 1.294-.206 2.225-1.337l.828-1.03-4.087-3.24-.776.925zm1.862 3.91c-.414 0-.828-.154-1.19-.463-.414-.308-.828-.823-.828-1.492 0-.463.259-.874.621-1.337l.362-.412 3.001 2.367-.207.309c-.673.617-1.035 1.028-1.759 1.028z" fill="#2A1D69"/><path d="M134.98 40.814c0-16.36-13.452-29.738-29.955-29.738-16.504 0-29.956 13.326-29.956 29.738 0 9.828 4.864 18.986 13.038 24.542.828 2.985 3.57 5.197 6.777 5.197.88 0 1.76-.154 2.535-.463 1.087.36 2.225.669 3.363.874-.31.927-.776 1.75-1.242 2.522-.465.771 0 0-.051 0l.621.617c.155-.103.362-.154.517-.154.621 0 1.138.514 1.138 1.132 0 .617-.517 1.132-1.138 1.132-.517 0-1.035-.36-1.242-.72 0 0-.155.514-.155 1.183 0 2.109 2.328 4.579 5.588 5.608 3.259-1.03 5.587-3.448 5.587-5.609 0-.72-.155-1.183-.155-1.183-.259.309-.673.72-1.242.72a1.145 1.145 0 01-1.138-1.132c0-.617.517-1.131 1.138-1.131.207 0 .414.051.569.154l.621-.617c-.362-.824-.569-1.544-.776-2.264 5.381-.72 9.933-2.984 13.555-6.74 7.709-5.711 12.003-14.304 12.003-23.668zM94.988 69.678c-3.415 0-6.157-2.778-6.157-6.122 0-1.08.259-2.058.724-2.933.31.309.673.566.983.875a4.62 4.62 0 00-.465 2.058c0 1.852.931 3.344 2.69 4.424 1.035.618 2.173 1.132 3.363 1.595-.31.103-.724.103-1.138.103zm10.037-8.9c-1.294 0-2.536-.104-3.777-.36a7.065 7.065 0 00-6.26-3.808 7.08 7.08 0 00-1.863.257c-5.07-3.756-8.122-9.724-8.122-16.001 0-11.01 9.002-19.963 20.073-19.963 11.072 0 20.074 8.952 20.074 19.963 0 11.01-9.054 19.911-20.125 19.911zm4.501.308c-.621.875-.983 2.058-1.087 3.241-1.914-.463-3.621-1.132-5.122-1.8.311-.566 1.087-.927 1.708-.927 1.552 0 3.052-.205 4.501-.514zm-6.364.412c-.259.205-.466.411-.621.668-.776-.36-1.707-.823-2.328-1.183.88.206 2.018.463 2.949.515zm-8.174-4.116a6.16 6.16 0 015.122 2.726c-.983-.257-1.966-.566-2.898-.977h-.051a5.085 5.085 0 00-2.121-.463 4.977 4.977 0 00-3.984 2.006c-.362-.205-.776-.411-1.138-.669 1.138-1.543 2.949-2.623 5.07-2.623zm14.175 15.692c-1.086 0-2.017.772-2.017 1.955 0 1.184.931 1.955 2.017 1.955.156 0 .311-.051.466-.051-.207 1.646-2.173 3.498-4.656 4.322-2.484-.824-4.398-2.676-4.656-4.322.155.051.31.051.465.051 1.19 0 2.018-.823 2.018-1.955a1.96 1.96 0 00-1.966-1.955 9.457 9.457 0 00.879-1.955c1.397.257 2.742.36 3.984.36 1.035 0 2.018-.052 3.001-.154.155.566.31 1.132.569 1.749h-.104zm-3.414-2.418c-4.036 0-9.002-1.338-12.468-3.396-1.035-.617-2.277-1.75-2.277-3.704 0-.515.103-1.03.31-1.492 1.294 1.08 2.639 2.058 3.467 2.52.207.103.31.155.517.155a.98.98 0 00.983-.978c0-.411-.207-.72-.569-.874-.724-.309-2.225-.926-3.828-1.75a4 4 0 013.207-1.595c.621 0 1.19.155 1.708.36l1.086.618c3.518 2.11 12.52 7.563 23.333 4.58-4.139 3.704-9.209 5.556-15.469 5.556zm16.814-6.843c-4.863 1.698-9.416 1.595-13.296.72.103-1.698.828-3.55 1.914-3.91 8.537-2.624 14.745-10.547 14.745-19.86 0-11.473-9.416-20.786-20.953-20.786-11.537 0-20.85 9.364-20.85 20.837 0 6.38 3 12.452 8.02 16.362a7.124 7.124 0 00-2.95 2.418c-.362-.257-.776-.515-1.086-.823l-.207.206c.207.257.569.617.983 1.029a6.904 6.904 0 00-.983 3.55c0 .205 0 .411.052.617C80.45 58.719 76 50.075 76 40.814c0-15.95 13.037-28.863 29.024-28.863 15.986 0 29.024 12.965 29.024 28.863.051 9.107-4.139 17.494-11.486 22.999z" fill="#2A1D69"/></svg>