<svg width="218" height="35" fill="none" xmlns="http://www.w3.org/2000/svg"><g clip-path="url(#clip0)"><path fill-rule="evenodd" clip-rule="evenodd" d="M52.406 10.211h7.998l.352 2.821c.615-2.256 4.66-3.856 7.12-3.856 5.715 0 8 3.763 8 10.346v14.2h-8.878V21.025c0-2.538-.439-4.419-2.813-4.419-2.197 0-3.34 2.54-3.34 4.327v12.79h-8.438V10.21h-.001zM.63 33.817V.525h14.855c8.878 0 12.921 4.607 12.921 11.285 0 7.15-3.69 12.04-12.921 12.04h-5.01v9.968H.63zM14.432 15.76c2.374 0 4.922-.565 4.922-3.48 0-3.009-2.724-3.667-4.922-3.667h-3.955v7.147h3.955zm135.723-5.549h8.086l.264 2.821c.704-2.256 4.746-3.856 7.209-3.856 5.626 0 7.998 3.763 7.998 10.346v14.295h-8.877V21.025c0-2.538-.529-4.419-2.9-4.419-2.111 0-3.255 2.54-3.255 4.327v12.884h-8.527V10.211h.002zm-40.786 15.143c0 .941.439 2.35.966 2.82.615.47 1.406.942 2.374.942 1.581 0 2.812-.47 2.812-2.07.088-3.948-13.361-.47-13.361-9.874 0-6.582 4.748-8.088 9.67-8.088 4.921 0 11.691 1.035 11.427 8.182h-7.472c0-.658-.264-1.128-.615-1.693-.529-.658-1.144-.94-2.285-1.035-1.495-.093-2.9.188-2.9 1.411.086 3.67 13.888 1.223 13.888 9.876 0 6.019-3.956 8.748-11.603 8.748-4.835-.095-10.9-2.728-10.9-9.218h7.999v-.001zm90.978-6.02c0-.566 0-1.317-.701-2.258-.354-.47-1.145-1.505-2.375-1.505-3.341 0-4.22 3.48-4.22 6.304 0 3.29 1.408 6.018 4.044 6.018 2.285 0 3.429-2.258 3.429-4.14h7.736c.176 4.89-2.99 10.722-11.516 10.722-6.945 0-11.867-5.173-11.867-12.697 0-9.122 6.328-12.603 11.777-12.603 7.385 0 11.606 4.797 11.516 10.157h-7.823v.002zM43 33.817l-.878-1.974c-1.67 1.504-3.428 2.35-6.241 2.35-2.725-.093-8.087-.47-8.087-6.771 0-10.346 14.416-5.644 14.416-10.722 0-1.693-1.758-1.6-2.725-1.6-1.758 0-2.9.377-3.165 3.197h-7.383c0-4.89 1.407-9.027 11.076-9.027 9.406 0 10.372 5.265 10.372 10.439v10.722c0 1.412.089 2.07.967 3.103v.188L43 33.817zm-.702-10.816c-2.989 1.508-6.769 1.412-6.856 3.764 0 1.505.79 2.255 2.55 2.255 2.9 0 4.482-3.196 4.306-6.019zm50.28 10.816l-.878-1.974c-1.67 1.504-3.517 2.35-6.242 2.35-2.813-.093-8.175-.47-8.175-6.771 0-10.346 14.417-5.644 14.504-10.722 0-1.693-1.845-1.6-2.724-1.6-1.845 0-2.901.377-3.164 3.197h-7.384c0-4.89 1.318-9.027 11.075-9.027 9.318 0 10.285 5.265 10.285 10.439v10.722c0 1.412.087 2.07.967 3.103v.188l-8.263.095zm-.703-10.816c-2.989 1.508-6.857 1.412-6.857 3.764 0 1.505.702 2.255 2.55 2.255 2.813 0 4.483-3.196 4.307-6.019zm91.594 10.816V10.211h-8.173v23.606h8.173zm-8.172-26.615h8.174V.43h-8.174v6.772zm-38.329 2.163c7.297 0 11.78 5.455 11.78 12.602 0 7.243-4.485 12.603-11.78 12.603-7.295 0-11.867-5.36-11.867-12.603.001-7.147 4.572-12.602 11.867-12.602zm-3.866 12.602c0 2.916.88 6.49 3.867 6.584 2.99 0 3.78-3.668 3.78-6.584 0-2.821-.791-6.489-3.78-6.489-2.987 0-3.778 3.669-3.867 6.489zm80.345 7.243c.527 0 1.317.092 1.317-.659 0-.658-.527-.753-.966-.753h-1.055v1.412h.704zm1.756 2.257h-.527l-1.054-1.882h-.88v1.882h-.439v-4.044h1.583c.707 0 1.334.227 1.334 1.128 0 .75-.456 1.034-1.158 1.034l1.141 1.882zm1.277-1.928c0-1.787-1.319-3.2-2.9-3.2a2.798 2.798 0 00-1.148.237c-.364.16-.695.395-.973.693a3.184 3.184 0 00-.648 1.041c-.149.39-.224.808-.221 1.229 0 1.691 1.319 3.103 2.99 3.103a2.833 2.833 0 002.043-.917c.543-.58.85-1.366.857-2.186zm-6.287-.049c0-.948.352-1.857.978-2.527a3.234 3.234 0 012.362-1.047c.886 0 1.736.377 2.362 1.047.627.67.979 1.58.979 2.527 0 1.977-1.495 3.574-3.341 3.574-1.845 0-3.34-1.597-3.34-3.574z" fill="#2A1D69"/></g><defs><clipPath id="clip0"><path fill="#fff" transform="translate(.682)" d="M0 0h216.636v35H0z"/></clipPath></defs></svg>