<svg width="232" height="29" fill="none" xmlns="http://www.w3.org/2000/svg"><g clip-path="url(#clip0)"><path d="M54.153 10.552H34.585l-.699.56v17.4h5.381v-6.569l.49-.489h14.396c3.633 0 5.31-.978 5.31-3.494v-3.983c0-2.446-1.676-3.425-5.31-3.425zm0 6.43c0 1.188-.77 1.397-2.516 1.397h-11.81l-.56-.489v-3.704l.49-.489h11.88c1.677 0 2.515.21 2.515 1.398v1.887zm15.234-3.145l4.683 6.848-.28.63H63.447l-2.655 3.284h15.374l1.118.629 2.376 3.284h6.22l-13.627-18.17-2.866 3.495zm61.707 11.181v-4.892l.559-.489h10.413v-3.075h-16.492v11.95h24.319v-3.074h-18.17l-.629-.42zm-5.52-14.466h24.529v3.355h-24.529v-3.355zm-27.325 3.215h19.777c-.279-2.516-1.887-3.215-5.8-3.215H98.04c-4.473 0-5.87.84-5.87 4.263v9.504c0 3.355 1.397 4.263 5.87 4.263h14.186c3.983 0 5.521-.768 5.66-3.354H98.249l-.559-.56V14.187l.56-.419zm-77.64 3.774H6.283l-.42-.49v-3.074l.42-.35H25.64l.28-.629c-.63-1.677-2.376-2.515-5.521-2.515H6.91c-4.472 0-5.87.838-5.87 4.262v2.027c0 3.355 1.398 4.263 5.87 4.263h14.327l.419.42v3.214l-.35.49H.622s-.49.279-.49.349c.35 2.376 1.958 3.004 5.801 3.004h14.676c4.472 0 5.94-.838 5.94-4.262v-2.446c0-3.355-1.468-4.263-5.94-4.263zm144.938-7.058h-8.107l-.419.838 8.945 6.57c1.677-.98 3.564-1.957 5.521-2.936l-5.94-4.472zm7.268 12.3l7.897 5.73h8.106l.35-.77-11.741-8.595c-1.537 1.188-3.145 2.376-4.612 3.634z" fill="#2A1D69"/><path d="M164.359 28.512h-7.337l-.629-.978C161.354 22.712 183.577 2.166 231.867 0c0 0-40.463 1.398-67.508 28.512z" fill="#7267A4"/></g><defs><clipPath id="clip0"><path fill="#fff" d="M0 0h232v28.582H0z"/></clipPath></defs></svg>