<svg width="232" height="31" fill="none" xmlns="http://www.w3.org/2000/svg"><path d="M198.203 11.992v18.212h5.827v-12.14h21.311v12.14h5.827V11.992h-32.965zm5.161-5.904h22.476c3.163-.582 5.411-3.41 6.077-6.07h-34.63c.666 2.66 2.997 5.405 6.077 6.07zm-22.892 24.116c2.914-1.247 4.495-3.41 5.161-5.904h-26.221V.1h-5.911v30.104h26.971zM109.798 6.005h20.811c3.164-.915 5.744-3.326 6.41-5.904h-32.964v17.796h26.971v6.237h-21.144c-3.33.915-6.16 3.16-7.575 6.07h34.546V11.992h-26.971l-.084-5.987zm-51.278.083h22.476c3.163-.582 5.494-3.41 6.077-6.07H52.36c.666 2.66 2.997 5.405 6.16 6.07zm0 11.892h22.476c3.163-.582 5.494-3.41 6.077-6.07H52.36c.666 2.66 2.997 5.405 6.16 6.07zm0 12.224h22.476c3.163-.582 5.494-3.41 6.077-6.07H52.36c.666 2.66 2.997 5.488 6.16 6.07zM0 .1c.666 2.662 2.997 5.323 6.077 5.988h9.49l.499.167V30.12h5.91V6.255l.5-.167h9.49c3.163-.831 5.41-3.326 6.076-5.987V.018L0 .1z" fill="#2A1D69"/></svg>