<svg width="152" height="92" fill="none" xmlns="http://www.w3.org/2000/svg"><path fill-rule="evenodd" clip-rule="evenodd" d="M65.153 15.359v3.34c0 8.237.016 12.888.055 13.952.033.906.182 1.606.439 2.1.165.295.458.61.879.945h-6.974c.292-.355.586-.7.88-1.034.346-.533.529-1.213.548-2.04.055-1.203.082-5.823.082-13.864V15.27c0-2.581-.027-4.177-.082-4.788l-1.483-.059c-.621-.02-1.208.197-1.757.65-.402.335-.687.71-.851 1.123 0-.275.082-.66.247-1.154.202-.61.338-1.104.412-1.478.073-.256.21-.858.411-1.804.42-.02 1.135-.02 2.142 0h2.635c2.435 0 4.183-.062 5.245-.185.018.398.192 1.182.522 2.355.2.577.43 1.332.686 2.266-.44-.57-.769-.945-.988-1.123a2.779 2.779 0 00-1.95-.65l-1.125.06a38 38 0 010 1.98c.017 1.319.027 2.285.027 2.896z" fill="#2A1D69"/><path fill-rule="evenodd" clip-rule="evenodd" d="M79.49 20.208v5.613c0 4.864 1.134 8.183.494 8.183h-4.501c.291-.927.439-2.1.439-3.519v-7.39H71.64l-.028 6.8c0 1.97.137 3.34.411 4.108h-4.42c.31-.906.467-1.989.467-3.25V20.267c0-2.423-.019-3.94-.055-4.55-.037-.964-.174-1.811-.412-2.54h4.366c-.22.826-.329 1.907-.329 3.245v3.953h4.283c.01-1.868.01-3.363 0-4.485-.019-1.041-.138-1.945-.356-2.713h4.474c-.091.197-.219.67-.383 1.417-.113 1.104-.168 2.975-.168 5.614z" fill="#2A1D69"/><path fill-rule="evenodd" clip-rule="evenodd" d="M84.852 23.61l-.055 5.998c-.01 1.241.005 1.942.028 2.099.05.335.238.502.548.502.111 0 .348-.03.715-.09 1.19-.177 1.957-.344 2.306-.502.457-.216 1.08-.758 1.867-1.625-.11.903-.304 2.22-.578 3.947H82.93c-.878-.02-1.756-.02-2.634 0 .146-.394.238-.67.275-.828.09-.295.145-.679.164-1.152.055-1.064.082-3.074.082-6.03v-5.261c0-1.477-.01-2.936-.027-4.375-.037-.986-.092-1.675-.165-2.07-.038-.216-.165-.57-.384-1.064.33-.02.85-.02 1.565 0h7.878c.018.02-.026.526-.136 1.516l-.193 1.604c-.238-.394-.431-.624-.576-.694-.146-.069-.485-.123-1.015-.163-.978-.06-1.96-.07-2.938-.03v5.734h1.318c.841 0 1.372-.019 1.592-.06.361-.044.708-.175 1.015-.384l-.005 1.479c0 1.28.002 1.92.005 1.92-.365-.316-1.042-.473-2.03-.473h-1.869v.001zM9.69 49.187V30.424c0-7.443-.032-12.801-.094-16.074-.063-3.273-.281-5.874-.656-7.802l-.998-3.902H20.81c2.871 0 4.933.426 6.183 1.278 1.957 1.346 3.415 4.082 4.371 8.209.542 2.603.812 5.473.812 8.614 0 5.786-.832 10.272-2.498 13.457-1.083 1.973-2.312 3.206-3.684 3.7 1.332.45 2.27.854 2.811 1.212 1.124.719 2.04 1.75 2.748 3.096 1.79 3.23 2.685 7.917 2.685 14.061 0 8.57-1.562 14.535-4.684 17.899-1.958 2.153-4.415 3.184-7.371 3.093-3.623-.097-8.122-.221-13.491-.368h-.47.156-.936c1.25-1.614 1.936-3.812 2.06-6.592.126-3.539.189-10.58.189-21.117zM17.56 7.984v24.539c.791.538 1.685.806 2.685.806 1.123 0 2.123-.94 2.999-2.823 1.082-2.15 1.623-4.93 1.623-8.337 0-4.078-.333-7.44-.999-10.084-.833-3.182-2.02-4.705-3.56-4.572-.708.09-1.625.247-2.748.47zm.061 32.809v26.354c0 2.062.25 3.486.75 4.272.499.784 1.436 1.13 2.81 1.04 3.665-.178 5.498-5.736 5.498-16.673 0-3.451-.584-6.835-1.75-10.153-1.332-3.81-2.915-5.715-4.747-5.715-.041 0-.895.292-2.56.875z" fill="#2A1D69"/><path fill-rule="evenodd" clip-rule="evenodd" d="M42.643 57.578l-.103 11.248c-.021 2.327.007 3.64.05 3.933.095.63.447.942 1.03.942.207 0 .653-.054 1.34-.166 2.23-.332 3.67-.645 4.323-.942.859-.405 2.025-1.42 3.5-3.047-.206 1.696-.565 4.165-1.08 7.408H39.04a105.923 105.923 0 00-4.941 0c.274-.739.445-1.255.515-1.554.17-.552.274-1.274.31-2.162.102-1.994.154-5.764.154-11.308v-9.87c0-2.77-.017-5.506-.05-8.204-.07-1.847-.174-3.141-.31-3.88-.07-.407-.31-1.072-.722-1.995.617-.038 1.596-.038 2.934 0h14.776c.032.037-.053.985-.258 2.844l-.36 3.011c-.447-.739-.808-1.172-1.08-1.302-.275-.13-.911-.23-1.906-.305-1.614-.11-3.45-.129-5.509-.055v10.75h2.47c1.578 0 2.573-.037 2.986-.113.652-.072 1.287-.313 1.905-.72l.017 2.77c0 2.401-.007 3.602-.017 3.602-.687-.59-1.956-.886-3.809-.886h-3.501v.001z" fill="#2A1D69"/><path fill-rule="evenodd" clip-rule="evenodd" d="M69.444 53.36l1.389 7.859c1.716 9.739 3.311 14.997 4.787 15.77h-4.375c.1 0-.653-.049-2.266-.148a15.464 15.464 0 00-3.397.147l.67-1.178c-.035-1.048-.24-3.426-.618-7.132h-6.228c-.654 3.593-.98 5.728-.98 6.401 0 .899.188 1.536.567 1.91-.344-.037-1.013-.037-2.007 0h-6.435c.926-.552 1.663-1.88 2.213-3.984.411-1.438 1.287-5.644 2.625-12.616l1.442-7.415c.549-2.62 1.097-5.238 1.647-7.856.48-2.25.721-3.836.721-4.76 0-1.29-.446-2.102-1.339-2.433H69.29c-1.338.516-2.007 1.587-2.007 3.209 0 .923.223 2.49.669 4.703.89 4.537 1.388 7.045 1.493 7.523zm-9.113 8.022h4.273l-2.06-14.296-2.212 14.296z" fill="#2A1D69"/><path fill-rule="evenodd" clip-rule="evenodd" d="M84.326 57.083v8.773c0 9.212.068 15.215.145 18.007.066 2.38.286 4.219.72 5.512.288.776.815 1.603 1.586 2.483H75.029c.51-.901 1.016-1.807 1.514-2.716.624-1.397.96-3.185 1.007-5.357.096-3.156.145-9.081.145-17.776v-9.16c0-6.779-.048-10.97-.145-12.575l-2.594-.157c-1.105-.051-2.139.519-3.1 1.708a9.101 9.101 0 00-1.369 2.948c0-.78.145-1.895.434-3.349.287-2.075.48-3.53.576-4.361.144-.414.383-1.738.72-3.971.768-.052 2.017-.052 3.748 0h4.613c3.94 0 6.847-.153 8.721-.461 0 .47.311 2.272.937 5.405.335 1.776.72 4.022 1.152 6.737-.769-1.498-1.346-2.481-1.729-2.948-1.01-1.24-2.138-1.809-3.387-1.707l-1.946.157c.032.984.032 2.717 0 5.2.032 3.468.032 6.004 0 7.608zm14.95-5.688l-.105 7.486v8.923c0 2.145.052 3.495.155 4.049.207.703.653 1.053 1.339 1.053.376 0 1.081-.11 2.11-.332a7.86 7.86 0 003.758-1.884c.616-.665 1.217-1.33 1.803-1.995-.378 2.028-.808 4.793-1.288 8.292-1.237-.074-2.986-.074-5.251 0H91.399c.41-.922.668-1.846.77-2.77.241-1.587.36-7.794.36-18.616V45.073c0-3.14-.324-5.523-.976-7.148h8.752c-.172.333-.344.684-.515 1.053-.172.37-.276.87-.31 1.497-.034.333-.103 3.974-.205 10.92z" fill="#2A1D69"/><path fill-rule="evenodd" clip-rule="evenodd" d="M115.647 57.578l-.103 11.248c-.021 2.327.006 3.64.05 3.933.094.63.446.942 1.03.942.206 0 .651-.054 1.338-.166 2.23-.332 3.671-.645 4.324-.942.859-.405 2.023-1.42 3.501-3.047-.207 1.696-.566 4.165-1.081 7.408h-12.664a105.967 105.967 0 00-4.942 0c.275-.739.446-1.255.515-1.554.172-.552.274-1.274.31-2.162.101-1.994.154-5.764.154-11.308v-9.87c0-2.77-.018-5.506-.05-8.204-.071-1.847-.175-3.141-.31-3.88-.071-.407-.31-1.072-.722-1.995.616-.038 1.596-.038 2.934 0h14.775c.033.037-.053.985-.257 2.844l-.362 3.011c-.445-.739-.806-1.172-1.08-1.302-.275-.13-.909-.23-1.904-.305-1.615-.11-3.45-.129-5.509-.055v10.75h2.47c1.577 0 2.572-.037 2.985-.113.653-.072 1.287-.313 1.905-.72l.018 2.77c0 2.401-.008 3.602-.018 3.602-.685-.59-1.956-.886-3.808-.886h-3.499v.001z" fill="#2A1D69"/><path fill-rule="evenodd" clip-rule="evenodd" d="M135.225 37.129c1.373.037 2.78.409 4.221 1.117 1.442.707 2.316 1.061 2.626 1.061.446 0 .857-.233 1.235-.7a643.16 643.16 0 00-1.493 5.965c-1.201-1.218-1.87-1.883-2.008-1.995-.995-.739-2.232-1.143-3.706-1.219-1.133-.036-2.11.332-2.934 1.106-.995.923-1.492 2.248-1.492 3.98 0 2.063.806 3.721 2.42 4.973a236.623 236.623 0 005.095 3.151c4.118 2.654 6.178 6.043 6.178 10.17 0 3.87-.979 6.91-2.935 9.119-2.094 2.359-5.096 3.537-9.009 3.537-2.231 0-4.117-.678-5.662-2.035-1.716-1.503-2.678-3.521-2.882-6.054.032-1.651.359-2.951.978-3.907.479-.77.995-1.154 1.545-1.154.344 0 .515.185.515.554 0 .26-.138.573-.414.942-.102.434-.153.88-.154 1.328 0 1.516.481 2.856 1.442 4.019.96 1.163 1.973 1.781 3.038 1.856 2.092.148 3.731-.34 4.916-1.467 1.183-1.125 1.777-2.759 1.777-4.898 0-2.361-1.047-4.503-3.141-6.422-.034-.038-1.803-1.2-5.304-3.488-2.504-1.623-4.066-3.874-4.682-6.752-.414-2.03-.329-3.987.255-5.868 1.475-4.76 4.667-7.066 9.575-6.92z" fill="#2A1D69"/></svg>