<svg width="232" height="73" fill="none" xmlns="http://www.w3.org/2000/svg"><path d="M129.286 32.042c-8.768 0-13.806 3.778-13.806 10.35 0 6.502 5.038 10.265 13.806 10.265 8.777 0 13.79-3.763 13.79-10.266 0-6.57-5.013-10.348-13.79-10.348zm0 15.846c-4.794 0-7.223-1.836-7.223-5.497 0-3.704 2.429-5.56 7.223-5.56 4.792 0 7.239 1.856 7.239 5.56 0 3.661-2.447 5.497-7.239 5.497zm15.586-15.34v4.398h8.314v13.649c0 1.304 1.983 1.778 3.659 1.778 1.683 0 3.67-.453 3.67-1.778V36.946h8.299V32.55h-23.942zm68.174 15.067c-2.032 0-3.429-.345-4.194-.97-.99-.845-1.1-2.09-1.128-3.043V33.97c0-1.282-1.883-1.705-3.501-1.705-1.626 0-3.525.423-3.525 1.681v9.332c0 3.566 1.139 6.063 3.42 7.425 2.813 1.632 7.92 1.571 12.833 1.506h6.126l.016-.883v-3.711h-10.047zm-113.544-1.46c0 3.479 2.924 5.848 7.889 6.252V31.44h11.141v-4.85H89.498v4.85h10.004v14.715zm98.358 6.06l-.176-.792c-1.633-8.062-10.794-17.273-12.696-18.635-.613-.418-1.267-.526-2.115-.546-.865.02-1.541.128-2.148.546-1.891 1.361-11.065 10.573-12.675 18.635l-.181.792h6.488l.117-.568c.264-1.146.684-2.382 1.25-3.657h14.263c.56 1.275.995 2.511 1.236 3.657l.138.568h6.499zm-19.842-8.363a35.662 35.662 0 014.856-5.892 37.2 37.2 0 014.826 5.892h-9.682z" fill="#2A1D69"/><path d="M70.987 38.61a6.168 6.168 0 00-.15-.417c-4.799 5.477-16.577 9.021-27.172 8.23-6.243-.462-17.803-3.69-23.634-7.262 6.158 5.9 13.372 10.392 21.536 12.813 9.7 2.88 20.052 2.686 25.885-.353 4.279-2.887 5.245-8.034 3.535-13.011z" fill="#7267A4"/><path d="M57.644 4.173c19.104 11.275 7.735 46.763-7.467 58.163-14.148 10.605-29.19 5.717-32.452-4.058 2.852 4.233 8.507 5.775 13.531 4.09C45.22 56.77 52.408 31.48 53.338 22.693c.623-7.56-.366-12.634-2.989-15.836-3.007-3.178-7.614-4.718-14.356-2.601C40.633.447 50.559 0 57.644 4.173z" fill="#2A1D69"/><path d="M68.335 51.116c.078-.044.154-.091.228-.142.005-.01.027-.018.04-.027.387-.257.78-.546 1.144-.877.16-.152.332-.31.496-.49 7.433-7.54 9.01-28.507-9.295-38.44-6.518-3.535-21.68-8.483-36.792-.85-4.995 2.518-10.15 7.765-12.931 14.89 2.053-3.38 5.597-5.675 12.583-6.665 6.973-.871 16.58.212 25.978 3.528 6.063 2.23 10.97 4.993 14.798 8.12 3.165 2.713 5.198 5.285 6.253 8.034.056.14.104.274.15.413 1.71 4.977.745 10.124-3.53 13.01-.004.008.003-.005 0 0 .205-.105.408-.218.607-.337.028-.017.055-.035.082-.054.056-.03.12-.065.189-.113" fill="#2A1D69"/><path d="M13.589 37.245c.354.557 1.142 1.503 1.661 2.105 3.676-8.63 23.783-14.238 29.713-14.173-13.321-4.288-26.382-2.24-31.636 2.314-1.908 2.123-2.499 5.31.262 9.754" fill="#7267A4"/><path d="M52.8 56.823c-10.7-.598-26.298-4.728-37.348-17.245a3.324 3.324 0 00-.2-.228c-.52-.602-1.308-1.545-1.664-2.105-2.76-4.444-2.166-7.631-.26-9.756-.344.314-.771.704-1.252 1.327-2.83 3.658-3.17 9.595-1.24 15.884 4.214 13.66 22.62 21.877 37.572 19.617 9.543-1.439 15.525-6.81 18.013-9.007-5.405 1.538-9.402 1.746-13.622 1.513" fill="#2A1D69"/></svg>