<svg width="232" height="85" fill="none" xmlns="http://www.w3.org/2000/svg"><g clip-path="url(#clip0)"><path d="M129.564 25.575h-8.096V44.3c0 4.82-1.981 8.649-7.791 8.649-5.754.057-7.411-3.886-7.411-8.897V25.575H98.15V46.11c0 5.925 2.096 14.402 13.24 14.46 6.116.056 9.145-2.915 10.573-5.563v4.514h7.601V25.575zm3.22 33.947h8.096V40.796c0-4.763 1.982-8.592 7.735-8.649 5.696 0 7.353 3.886 7.353 8.973v18.402h8.097v-20.46c0-6-2.096-14.459-13.164-14.535-6.058-.057-9.087 2.896-10.573 5.563.057-1.6.057-3.03.057-4.515h-7.601v33.947zm34.386 0h8.096V25.575h-8.096v33.947zm0-38.52h8.096v-7.238h-8.096v7.239zm16.573 38.52h8.097V31.823h5.81l-2.4-6.248h-3.41V13.764h-8.097v11.81h-5.619v6.25h5.619v27.698zm21.737 11.869h8.649l17.869-45.816h-8.649l-8.153 22.574-8.287-22.574h-8.649l12.802 32.652-5.582 13.164zM53.744 42.244l14.783-25.528 7.144 25.528-7.144 25.527-14.783-25.527zm-7.2 4.134l14.782 25.527-25.756-6.591-18.612-18.936h29.585zm14.782-33.815L46.543 38.091H16.958L35.57 19.155l25.756-6.592zm21.108 20.994L73.404.009 39.742 9.001l-4.99 8.763-10.117-.076-24.65 24.556L24.634 66.8l10.116-.077 4.991 8.764 33.662 8.991 9.03-33.547-5.124-8.687 5.124-8.687z" fill="#2A1D69"/></g><defs><clipPath id="clip0"><path fill="#fff" d="M0 0h232v84.448H0z"/></clipPath></defs></svg>