<svg width="104" height="83" fill="none" xmlns="http://www.w3.org/2000/svg"><path d="M15.8 61.139c-1.177-1.036-3.164-1.727-5.225-1.727-3.236 0-6.18 1.865-7.798 5.043-.957 1.865-1.398 4.076-1.398 6.77 0 3.247.883 5.873 2.501 7.877 1.693 2.071 3.827 3.038 6.623 3.038 2.355 0 4.12-.69 5.739-2.072l-1.914-2.763c-1.177 1.036-2.28 1.383-3.531 1.383-1.693 0-3.09-.83-3.9-2.42-.588-1.174-.883-2.9-.883-5.87 0-2.557.368-4.353 1.178-5.665.735-1.106 2.06-1.865 3.458-1.865 1.177 0 2.208.415 3.238 1.243l1.912-2.972zm2.355-1.727c.147.691.295 2.142.295 3.731v18.585h3.972V70.19c.883-.83 2.135-1.522 3.09-1.522 1.178 0 1.546.623 1.546 2.212v10.847h3.826V70.467c0-1.52-.074-2.072-.368-2.97-.441-1.451-1.987-2.349-3.9-2.349-1.544 0-3.237.76-4.266 1.796 0-.208.072-.899.072-1.382v-3.177c0-1.59-.072-3.109-.294-4.007l-3.973 1.034zm23.47 15.267l-.073 3.455c-.588.692-1.324 1.106-2.06 1.106-.955 0-1.692-.83-1.692-2.073 0-1.933.957-2.488 3.678-2.488h.148zM33.9 67.564l1.693 2.97c1.618-1.106 3.09-1.796 4.342-1.796 1.398 0 1.765.62 1.765 2.418v.62h-.883c-4.783 0-7.212 1.727-7.212 5.528 0 3.178 1.768 5.042 5.152 5.042 1.25 0 2.28-.346 3.016-.898.294-.207.588-.552.883-.828.441.828 1.25 1.52 2.133 1.934l2.133-2.557c-1.176-.967-1.47-1.588-1.47-3.316v-.277l.147-5.458c0-1.726-.073-2.21-.294-2.9-.59-1.796-2.282-2.764-4.856-2.764-1.398 0-2.65.276-4.12.966-1.032.418-1.62.763-2.43 1.315h.001zm14.716-1.313c.295 1.106.515 2.42.515 3.8v11.677h3.9v-11.4c.956-.897 1.987-1.45 2.795-1.45.957 0 1.25.552 1.25 2.348v10.502h3.9V69.982c0-1.035-.073-1.727-.294-2.348-.44-1.382-1.913-2.28-3.605-2.28-.883 0-1.914.207-2.722.691-.588.346-1.103.76-1.693 1.175 0-.621-.22-1.313-.588-2.003l-3.458 1.034zm15.303 0c.369 1.106.516 2.42.516 3.8v11.677h3.972v-11.4c.884-.897 1.914-1.45 2.723-1.45 1.03 0 1.324.552 1.324 2.348v10.502h3.899V69.982c0-1.035-.146-1.727-.368-2.348-.44-1.382-1.913-2.28-3.604-2.28-.883 0-1.913.207-2.65.691-.661.346-1.177.76-1.765 1.175 0-.621-.222-1.313-.515-2.003l-3.531 1.034zm19.426 5.664v-.069c0-2.21.883-3.453 2.354-3.453.81 0 1.398.276 1.766.897.367.621.441 1.244.441 2.418v.207h-4.561zm6.916 5.527c-1.177 1.037-2.429 1.59-3.752 1.59-2.061 0-3.239-1.382-3.239-3.939v-.069h8.756V73.99c0-3.316-.661-5.527-2.06-6.978-.956-1.106-2.575-1.727-4.341-1.727-1.985 0-3.457.69-4.709 2.142-1.324 1.588-1.838 3.523-1.838 6.424 0 5.042 2.796 8.359 7.062 8.359 2.135 0 3.975-.76 5.666-2.28l-1.545-2.487zm8.388-18.997l-4.047.967c.147 1.451.222 2.764.222 4.836v12.02c0 2.28.072 2.831.367 3.66.441 1.314 1.766 2.211 3.458 2.211a6.14 6.14 0 002.355-.484l-.663-2.487c-.22.07-.293.07-.44.07-.296 0-.663-.208-.811-.485-.22-.414-.22-.828-.22-3.592V62.657c0-2.278-.074-3.315-.221-4.213zM.643 30.397L5.5 52.504h4.708l1.693-8.982c.588-3.247.957-6.285.957-6.285.072.552.367 3.385.954 6.354l1.84 8.913h4.489l4.93-22.107h-4.342l-1.619 8.29c-.44 2.142-1.104 6.632-1.104 7.322 0 0-.515-3.8-.957-5.803l-1.838-9.809h-4.489L8.884 39.24c-.59 3.04-.958 6.148-1.031 6.978 0 0-.295-3.109-1.105-7.185l-1.765-8.636H.643zm28.548 12.09v-.068c0-2.28.883-3.524 2.354-3.524.81 0 1.325.345 1.693.967.367.623.515 1.244.515 2.418v.207l-4.562.001zm6.916 5.457c-1.177 1.105-2.427 1.658-3.825 1.658-1.988 0-3.165-1.45-3.165-3.937v-.139h8.682v-.966c0-3.385-.588-5.527-1.988-7.046-.955-1.038-2.575-1.728-4.34-1.728-1.988 0-3.459.761-4.71 2.212-1.324 1.589-1.912 3.523-1.912 6.355 0 5.113 2.796 8.36 7.136 8.36 2.133 0 3.9-.692 5.665-2.212l-1.543-2.556zm11.552-2.695l-.074 3.455c-.588.691-1.323 1.105-2.06 1.105-.956 0-1.692-.828-1.692-2.14 0-1.866.956-2.42 3.679-2.42h.148-.001zm-7.726-7.183l1.693 3.04c1.618-1.176 3.09-1.797 4.342-1.797 1.398 0 1.765.554 1.765 2.35v.69c-.367-.069-.588-.069-.883-.069-4.782 0-7.21 1.797-7.21 5.596 0 3.178 1.766 4.974 5.15 4.974 1.25 0 2.28-.277 3.016-.83.295-.206.59-.552.884-.897.441.829 1.25 1.59 2.133 2.004l2.134-2.626c-1.178-.897-1.472-1.52-1.472-3.316v-.276l.074-5.39c.073-1.727 0-2.21-.222-2.9-.588-1.796-2.354-2.833-4.856-2.833-1.4 0-2.65.347-4.122.968-1.028.483-1.616.828-2.426 1.312zM62.67 36.2h-3.53c0-1.658.072-3.455.219-4.905l-3.973 1.036c-.147 1.243-.147 2.28-.147 3.868h-1.545v2.833h1.545v8.774c0 1.52 0 1.795.222 2.486.516 1.451 2.06 2.35 4.047 2.35 1.03 0 2.06-.208 3.237-.69l-.515-2.557c-.736.207-1.03.347-1.398.347-1.399 0-1.692-.554-1.692-2.626v-8.084h2.5l1.03-2.832zm1.692-6.217c.147.622.295 2.142.295 3.661v18.654h3.973V40.76c.883-.898 2.133-1.52 3.09-1.52 1.104 0 1.545.622 1.545 2.212v10.846h3.826V41.037c0-1.59-.074-2.073-.367-3.04-.442-1.381-1.988-2.28-3.9-2.28-1.545 0-3.238.692-4.268 1.728 0-.139.074-.829.074-1.313v-3.247c0-1.52-.074-3.04-.295-3.938l-3.973 1.037zm19.057 12.504v-.068c0-2.28.882-3.524 2.428-3.524.736 0 1.325.345 1.693.967.367.623.441 1.244.441 2.418v.207l-4.562.001zm6.99 5.457c-1.25 1.105-2.5 1.658-3.826 1.658-2.06 0-3.164-1.45-3.164-3.937v-.139H92.1v-.966c0-3.385-.59-5.527-1.987-7.046-.956-1.038-2.649-1.728-4.342-1.728-1.987 0-3.531.761-4.782 2.212-1.323 1.589-1.839 3.523-1.839 6.355 0 5.113 2.796 8.36 7.064 8.36 2.133 0 3.973-.692 5.664-2.212l-1.47-2.556zm3.826-11.123c.368.9.59 2.557.59 4.699v10.777h3.899V40.899c.735-.898 1.545-1.383 2.428-1.383.441 0 .809.14 1.176.347l1.031-3.731c-.588-.277-.809-.346-1.398-.346-.441 0-1.031.069-1.324.276-.736.347-1.693 1.244-2.208 2.004a5.575 5.575 0 00-.662-2.28l-3.532 1.035zM.79 1.451v3.663h5.004V23.35h4.193V5.114h4.857l.662-3.662H.79zm16.482-.414c.147.622.293 2.142.293 3.661v18.654h3.974V11.745c.883-.829 2.134-1.451 3.09-1.451 1.178 0 1.546.622 1.546 2.21V23.35H30V12.022c0-1.52-.073-2.074-.367-2.971-.442-1.383-1.988-2.28-3.9-2.28-1.545 0-3.237.69-4.267 1.727 0-.207.073-.83.073-1.382V3.938c0-1.52-.073-3.04-.294-3.938l-3.974 1.037zM36.99 13.473v-.07c0-2.21.811-3.455 2.355-3.455.736 0 1.325.277 1.693.967.368.554.44 1.175.44 2.418v.138h-4.487v.002zm6.917 5.525c-1.25 1.105-2.502 1.589-3.826 1.589-2.06 0-3.164-1.382-3.164-3.869v-.138h8.682v-.966c0-3.385-.59-5.528-1.987-7.046-.956-1.105-2.65-1.728-4.342-1.728-1.987 0-3.532.692-4.782 2.212-1.25 1.589-1.839 3.453-1.839 6.355 0 5.113 2.796 8.36 7.136 8.36 2.06 0 3.9-.761 5.667-2.212" fill="#2A1D69"/></svg>